<svg width="32" height="19" viewBox="0 0 32 19" fill="none" xmlns="http://www.w3.org/2000/svg">
<g clip-path="url(#clip0_1766_1030)">
<rect width="31.5548" height="19" fill="#121212"/>
<path d="M31.2556 4.08443C31.2556 4.16311 31.2687 4.22867 31.295 4.28113C31.3212 4.32046 31.3212 4.37947 31.295 4.45815C31.3081 4.5106 31.3277 4.5565 31.354 4.59583C31.3802 4.62206 31.3868 4.65484 31.3736 4.69418C31.3081 4.83842 31.2819 4.93677 31.295 4.98922C31.3081 5.02856 31.3081 5.08757 31.295 5.16624C31.2687 5.20558 31.2425 5.26459 31.2163 5.34327C31.2032 5.42194 31.2097 5.49407 31.236 5.55963C31.2228 5.61208 31.2097 5.65798 31.1966 5.69731C31.1835 5.73665 31.1769 5.7891 31.1769 5.85467C31.2687 6.13004 31.2228 6.32673 31.0393 6.44475C30.9999 6.56276 30.9803 6.68734 30.9803 6.81846C30.954 6.87091 30.9081 6.89058 30.8426 6.87747C30.777 6.86436 30.7246 6.87091 30.6852 6.89714C30.6983 6.9627 30.7049 7.05449 30.7049 7.17251C30.6918 7.27741 30.6524 7.35609 30.5869 7.40854C30.5344 7.44788 30.4951 7.52 30.4689 7.6249C30.2197 7.78226 30.0033 7.91994 29.8198 8.03796C29.7411 8.31333 29.5772 8.51002 29.328 8.62804C29.1576 8.64115 29.0723 8.67393 29.0723 8.72638C29.0068 8.75261 28.9478 8.77228 28.8953 8.78539C28.856 8.78539 28.8035 8.7985 28.738 8.82473C28.5806 8.78539 28.4888 8.78539 28.4626 8.82473C28.4495 8.86407 28.4232 8.89685 28.3839 8.92308C28.2397 8.9493 28.1217 8.96897 28.0299 8.98208C27.9512 8.9952 27.8791 9.01487 27.8135 9.04109C27.7348 9.02798 27.6758 9.00175 27.6365 8.96241C27.6103 8.90996 27.5709 8.87063 27.5185 8.8444C27.4529 8.85751 27.407 8.88374 27.3808 8.92308C27.3546 8.9493 27.3152 8.97553 27.2628 9.00175C27.1972 9.00175 27.1316 9.00831 27.0661 9.02142C27.0005 9.02142 26.9349 9.02142 26.8694 9.02142C26.83 8.9952 26.7841 8.97553 26.7317 8.96241C26.6924 8.93619 26.653 8.90996 26.6137 8.88374C26.4825 8.92308 26.3973 8.96241 26.358 9.00175C26.3317 9.02798 26.2859 9.04109 26.2203 9.04109C26.0892 9.01487 25.9515 9.00175 25.8072 9.00175C25.663 9.00175 25.5384 9.02798 25.4335 9.08043C25.486 9.146 25.4991 9.23123 25.4729 9.33613L25.3745 9.6115C25.4138 9.7164 25.4335 9.79508 25.4335 9.84753C25.4335 9.88687 25.4335 9.92621 25.4335 9.96555C25.4991 10.136 25.5056 10.2606 25.4532 10.3393C25.4138 10.4048 25.3811 10.4769 25.3548 10.5556C25.3286 10.5819 25.2958 10.6146 25.2565 10.654C25.2303 10.6802 25.2237 10.7261 25.2368 10.7917C25.2631 10.8179 25.3024 10.831 25.3548 10.831C25.4204 10.831 25.4663 10.8507 25.4925 10.89C25.5188 11.008 25.5056 11.1129 25.4532 11.2047C25.4138 11.2834 25.3942 11.3883 25.3942 11.5194C25.4073 11.6112 25.427 11.7096 25.4532 11.8145C25.4794 11.9194 25.4991 12.0243 25.5122 12.1292C25.486 12.1816 25.4532 12.2341 25.4138 12.2865C25.3745 12.3259 25.3417 12.3652 25.3155 12.4045C25.2893 12.4439 25.2893 12.4832 25.3155 12.5226C25.3417 12.5488 25.3548 12.5816 25.3548 12.6209C25.3155 12.8307 25.3221 12.9749 25.3745 13.0536C25.4401 13.1323 25.486 13.2241 25.5122 13.329C25.4991 13.3683 25.486 13.4011 25.4729 13.4273C25.4729 13.4536 25.4663 13.4929 25.4532 13.5454C25.4401 13.5847 25.4401 13.624 25.4532 13.6634C25.4794 13.7027 25.4794 13.7355 25.4532 13.7617C25.3221 13.8666 25.3024 13.9781 25.3942 14.0961C25.4597 14.1879 25.4925 14.2535 25.4925 14.2928C25.5056 14.319 25.5122 14.3452 25.5122 14.3715C25.486 14.5419 25.4794 14.6534 25.4925 14.7058C25.3876 14.7976 25.3155 14.8566 25.2762 14.8829C25.2499 14.9222 25.2237 14.955 25.1975 14.9812C25.1581 15.1517 25.086 15.2304 24.9811 15.2172C24.8762 15.2172 24.7975 15.2435 24.7451 15.2959C24.7844 15.4795 24.7844 15.5779 24.7451 15.591C24.7058 15.6172 24.673 15.65 24.6467 15.6893C24.6205 15.9647 24.5418 16.1351 24.4107 16.2007C24.2796 16.2663 24.1747 16.3712 24.096 16.5154C24.0304 16.5941 24.0108 16.64 24.037 16.6531C24.0632 16.6793 24.0763 16.7121 24.0763 16.7515C24.0763 16.8432 24.0501 16.8957 23.9977 16.9088C23.9452 16.9219 23.8862 16.9416 23.8206 16.9678C23.7813 16.994 23.7551 17.0334 23.742 17.0858C23.742 17.1383 23.7354 17.1907 23.7223 17.2432C23.6961 17.2825 23.6698 17.3219 23.6436 17.3612C23.6174 17.4005 23.5912 17.4399 23.5649 17.4792C23.5518 17.5186 23.5453 17.571 23.5453 17.6366C23.5453 17.7021 23.5453 17.7677 23.5453 17.8333C23.5059 17.9906 23.4797 18.0824 23.4666 18.1086C23.4666 18.148 23.4731 18.1808 23.4863 18.207C23.4731 18.3381 23.4797 18.4233 23.5059 18.4627C23.5322 18.5151 23.5518 18.5741 23.5649 18.6397C23.5125 18.7446 23.4535 18.7643 23.3879 18.6987C23.3223 18.6463 23.2699 18.5938 23.2306 18.5414C23.2043 18.5676 23.1978 18.6004 23.2109 18.6397C23.2371 18.6922 23.2371 18.7315 23.2109 18.7577C23.0535 18.6528 22.9617 18.5414 22.9355 18.4233C22.9224 18.3184 22.8765 18.2398 22.7978 18.1873C22.7847 18.0562 22.7847 17.9775 22.7978 17.9513C22.8241 17.9382 22.8437 17.9185 22.8568 17.8923C22.8306 17.8267 22.8241 17.7415 22.8372 17.6366C22.8109 17.571 22.7847 17.5054 22.7585 17.4399C22.7454 17.3743 22.7388 17.2956 22.7388 17.2038C22.7913 17.0334 22.8175 16.9219 22.8175 16.8695C22.8306 16.817 22.8503 16.7777 22.8765 16.7515C22.9027 16.7383 22.929 16.7187 22.9552 16.6924C22.9421 16.64 22.9224 16.5875 22.8962 16.5351C22.8831 16.4958 22.8896 16.4564 22.9158 16.4171C22.9683 16.3777 23.0142 16.3581 23.0535 16.3581C23.106 16.3581 23.1453 16.3253 23.1715 16.2597C23.1584 16.2204 23.1322 16.1942 23.0929 16.181C23.0535 16.1679 23.0273 16.1417 23.0142 16.1024C22.9617 15.9319 22.9093 15.8204 22.8568 15.768C22.8175 15.7155 22.7913 15.6434 22.7782 15.5516C22.8568 15.4205 22.9093 15.3353 22.9355 15.2959C22.9617 15.2566 22.9749 15.1976 22.9749 15.1189C22.9486 15.0927 22.9093 15.073 22.8568 15.0599C22.8175 15.0599 22.7913 15.0402 22.7782 15.0009C22.7913 14.9484 22.8241 14.8829 22.8765 14.8042C22.8765 14.6468 22.8896 14.5616 22.9158 14.5485C22.8765 14.3649 22.8568 14.1879 22.8568 14.0174C22.8568 13.8338 22.8831 13.7421 22.9355 13.7421C22.87 13.5978 22.8437 13.5126 22.8568 13.4864C22.8831 13.447 22.9093 13.4077 22.9355 13.3683C23.0011 13.3552 23.0273 13.3224 23.0142 13.27C23.0142 13.2175 23.0273 13.1585 23.0535 13.093C23.0535 12.9487 23.0339 12.8176 22.9945 12.6996C22.9552 12.5816 22.9486 12.4504 22.9749 12.3062C23.0011 12.2406 23.0142 12.1554 23.0142 12.0505C23.0273 11.9456 23.0142 11.8538 22.9749 11.7751C23.0142 11.6833 23.0339 11.5981 23.0339 11.5194C22.9814 11.4145 22.9486 11.3293 22.9355 11.2637C22.9617 11.2113 22.9749 11.1457 22.9749 11.067C22.988 10.9884 22.988 10.9097 22.9749 10.831C23.0404 10.6343 23.0601 10.5163 23.0339 10.4769C23.0076 10.4245 22.9814 10.372 22.9552 10.3196C22.9814 10.254 23.0076 10.1819 23.0339 10.1032C23.0732 10.0246 23.0863 9.95244 23.0732 9.88687C23.1125 9.67707 23.1125 9.55249 23.0732 9.51315C23.0339 9.47382 22.9945 9.42792 22.9552 9.37547C22.9683 9.28368 22.9749 9.19189 22.9749 9.1001C22.9749 8.9952 22.988 8.90341 23.0142 8.82473C22.9749 8.6936 22.9552 8.54936 22.9552 8.39201C23.0601 8.12975 23.1322 7.93306 23.1715 7.80193C23.1453 7.74948 23.0994 7.71669 23.0339 7.70358C22.9683 7.67736 22.9224 7.6249 22.8962 7.54623C22.9224 7.48066 22.9486 7.4151 22.9749 7.34953C23.0142 7.27086 23.0208 7.19218 22.9945 7.1135C23.047 6.99549 23.0666 6.93648 23.0535 6.93648C23.0535 6.92337 23.0535 6.9037 23.0535 6.87747C23.0798 6.72012 23.0732 6.60866 23.0339 6.54309C23.0076 6.47753 22.9749 6.41852 22.9355 6.36607C22.9617 6.24805 22.9945 6.14315 23.0339 6.05136C23.0732 5.95957 23.106 5.85467 23.1322 5.73665C23.1322 5.59241 23.1257 5.44817 23.1125 5.30393C23.0994 5.15969 23.0798 5.00889 23.0535 4.85154C23.0535 4.69418 23.0601 4.59583 23.0732 4.5565C23.0994 4.50404 23.0994 4.45159 23.0732 4.39914C23.0732 4.28113 23.0535 4.20901 23.0142 4.18278C22.988 4.15655 22.9617 4.11722 22.9355 4.06476C22.9355 3.9992 22.9486 3.94675 22.9749 3.90741C23.0011 3.86807 23.0208 3.82218 23.0339 3.76972C23.047 3.70416 23.0404 3.65171 23.0142 3.61237C23.0011 3.55992 23.0076 3.50747 23.0339 3.45502C22.9814 3.37634 22.9421 3.28455 22.9158 3.17965C22.9027 3.0354 22.9027 2.93706 22.9158 2.88461C22.9421 2.83216 22.9617 2.77315 22.9749 2.70758C22.9749 2.64202 22.9683 2.58301 22.9552 2.53056C22.9552 2.47811 22.9617 2.42566 22.9749 2.37321C22.9749 2.2683 22.9617 2.16996 22.9355 2.07817C22.9749 1.9077 22.9814 1.81591 22.9552 1.8028C22.929 1.78968 22.9093 1.7569 22.8962 1.70445C22.8831 1.57332 22.8634 1.5012 22.8372 1.48809C22.8109 1.47498 22.7847 1.45531 22.7585 1.42908C22.6536 1.33729 22.588 1.29795 22.5618 1.31106C22.5356 1.31106 22.4962 1.31106 22.4438 1.31106C22.3651 1.21927 22.3323 1.16682 22.3454 1.15371C22.3717 1.12748 22.3848 1.10126 22.3848 1.07503C22.3454 1.02258 22.2536 0.983243 22.1094 0.957017C22.057 0.930792 22.0045 0.917679 21.9521 0.917679C21.8996 0.904566 21.8537 0.884897 21.8144 0.858671C21.6964 0.766881 21.6177 0.734099 21.5783 0.760325C21.539 0.773437 21.4931 0.766881 21.4407 0.740655C21.4275 0.701317 21.4144 0.655422 21.4013 0.60297C21.3882 0.550519 21.3882 0.504624 21.4013 0.465285C21.4275 0.412834 21.4734 0.406278 21.539 0.445616C21.6046 0.471842 21.6636 0.478398 21.716 0.465285C21.8078 0.43906 21.9062 0.412834 22.0111 0.386608C22.1291 0.360383 22.2209 0.386608 22.2864 0.465285C22.3127 0.43906 22.3651 0.41939 22.4438 0.406278C22.5225 0.380052 22.5749 0.399721 22.6011 0.465285C22.6536 0.43906 22.7257 0.41939 22.8175 0.406278C22.9093 0.393165 22.988 0.399721 23.0535 0.425947C23.224 0.412834 23.3223 0.412834 23.3486 0.425947C23.3748 0.43906 23.401 0.452173 23.4273 0.465285C23.5059 0.465285 23.578 0.458729 23.6436 0.445616C23.7223 0.432503 23.801 0.412834 23.8796 0.386608C23.9583 0.43906 24.0239 0.471842 24.0763 0.484955C24.2993 0.458729 24.4501 0.425947 24.5287 0.386608C24.6074 0.334157 24.7123 0.314488 24.8434 0.3276C24.909 0.353826 24.9549 0.386608 24.9811 0.425947C25.0205 0.465285 25.0532 0.504624 25.0795 0.543962C25.2762 0.517737 25.4073 0.491511 25.4729 0.465285C25.5384 0.425947 25.6105 0.399721 25.6892 0.386608C25.8466 0.373495 25.9711 0.353826 26.0629 0.3276C26.1678 0.301375 26.2531 0.340713 26.3186 0.445616C26.3973 0.445616 26.4891 0.458729 26.594 0.484955C26.6333 0.458729 26.6792 0.445616 26.7317 0.445616C26.7973 0.445616 26.8628 0.43906 26.9284 0.425947C26.9677 0.425947 27.0005 0.41939 27.0267 0.406278C27.0661 0.393165 27.1054 0.393165 27.1447 0.406278C27.3021 0.445616 27.4267 0.458729 27.5185 0.445616C27.6103 0.41939 27.6824 0.43906 27.7348 0.504624C27.8004 0.504624 27.8528 0.517737 27.8922 0.543962C27.9315 0.557075 27.984 0.570188 28.0495 0.583301C28.1413 0.557075 28.22 0.524293 28.2856 0.484955C28.3511 0.445616 28.4232 0.412834 28.5019 0.386608C28.6462 0.43906 28.7117 0.484955 28.6986 0.524293C28.6986 0.563632 28.7052 0.596414 28.7183 0.62264C28.7576 0.62264 28.8101 0.62264 28.8756 0.62264C28.9543 0.62264 29.0133 0.635752 29.0527 0.661978C29.1576 0.793107 29.2166 0.852115 29.2297 0.839002C29.2559 0.812776 29.2887 0.80622 29.328 0.819332C29.3805 0.845558 29.4067 0.891453 29.4067 0.957017C29.4198 1.02258 29.4329 1.07503 29.4461 1.11437C29.5247 1.17994 29.6165 1.21927 29.7214 1.23239C29.8263 1.33729 29.905 1.40285 29.9575 1.42908C30.0099 1.44219 30.0624 1.46186 30.1148 1.48809C30.2328 1.57988 30.3115 1.64544 30.3508 1.68478C30.4033 1.71101 30.4557 1.74379 30.5082 1.78313C30.5082 1.83558 30.5213 1.87492 30.5475 1.90114C30.5869 1.91426 30.6197 1.93393 30.6459 1.96015C30.6065 2.05194 30.6065 2.11095 30.6459 2.13717C30.6983 2.15029 30.7377 2.18307 30.7639 2.23552C30.8032 2.40599 30.8491 2.524 30.9016 2.58957C30.954 2.64202 30.9671 2.71414 30.9409 2.80593C30.9671 2.93706 31.0262 3.0354 31.1179 3.10097C31.2228 3.16653 31.2884 3.25832 31.3146 3.37634C31.2753 3.54681 31.2753 3.67138 31.3146 3.75006C31.354 3.81562 31.3671 3.88118 31.354 3.94675L31.2556 4.08443ZM28.9543 5.16624C28.9674 5.06134 28.9674 4.98266 28.9543 4.93021C28.9543 4.86465 28.9412 4.79908 28.915 4.73352C28.9019 4.62862 28.8822 4.54994 28.856 4.49749C28.8429 4.43192 28.8232 4.36636 28.797 4.3008C28.8232 4.23523 28.8297 4.18278 28.8166 4.14344C28.8166 4.09099 28.8166 4.03198 28.8166 3.96642C28.8297 3.83529 28.8232 3.76317 28.797 3.75006C28.7839 3.72383 28.7707 3.6976 28.7576 3.67138C28.6527 3.52714 28.5937 3.42879 28.5806 3.37634C28.5675 3.32389 28.5609 3.26488 28.5609 3.19932C28.5216 3.13375 28.456 3.10097 28.3642 3.10097C28.2856 3.10097 28.2331 3.06819 28.2069 3.00262C28.1938 2.84527 28.1675 2.74692 28.1282 2.70758C28.0889 2.66824 28.0692 2.60924 28.0692 2.53056C27.9774 2.55679 27.9053 2.55679 27.8528 2.53056C27.8135 2.50433 27.7676 2.47811 27.7152 2.45188C27.6496 2.50433 27.5775 2.51745 27.4988 2.49122C27.4201 2.45188 27.3414 2.45188 27.2628 2.49122C27.1579 2.45188 27.0792 2.43877 27.0267 2.45188C26.9743 2.45188 26.9284 2.43877 26.889 2.41254C26.8104 2.30764 26.7448 2.2683 26.6924 2.29453C26.6399 2.32075 26.5809 2.32075 26.5153 2.29453C26.4498 2.41254 26.4104 2.47811 26.3973 2.49122C26.3973 2.50433 26.3842 2.524 26.358 2.55023C26.1482 2.45844 26.0105 2.42566 25.9449 2.45188C25.8925 2.465 25.8269 2.48466 25.7482 2.51089C25.5909 2.45844 25.4925 2.43877 25.4532 2.45188C25.4401 2.51745 25.4335 2.57645 25.4335 2.62891C25.4466 2.68136 25.4401 2.73381 25.4138 2.78626C25.4401 2.81249 25.4729 2.83871 25.5122 2.86494C25.5515 2.89116 25.5778 2.9305 25.5909 2.98295C25.5778 3.04852 25.5515 3.10097 25.5122 3.14031C25.486 3.17965 25.4597 3.2321 25.4335 3.29766C25.486 3.35011 25.4991 3.41568 25.4729 3.49435C25.4466 3.57303 25.4204 3.6386 25.3942 3.69105C25.4335 3.76972 25.4204 3.84185 25.3548 3.90741C25.3811 3.97297 25.4073 4.03198 25.4335 4.08443C25.4729 4.13688 25.4925 4.20901 25.4925 4.3008C25.4794 4.36636 25.4597 4.42537 25.4335 4.47782C25.4073 4.51716 25.3876 4.56961 25.3745 4.63517C25.4532 4.75319 25.486 4.82531 25.4729 4.85154C25.4597 4.87776 25.4466 4.90399 25.4335 4.93021C25.4466 4.96955 25.4663 5.00233 25.4925 5.02856C25.5188 5.05478 25.545 5.08757 25.5712 5.1269C25.5974 5.20558 25.5974 5.29082 25.5712 5.38261C25.545 5.46128 25.5253 5.53996 25.5122 5.61864C25.5122 5.65798 25.5122 5.70387 25.5122 5.75632C25.5253 5.79566 25.5253 5.82844 25.5122 5.85467C25.4729 5.9858 25.4663 6.06447 25.4925 6.0907C25.5188 6.11693 25.5384 6.15626 25.5515 6.20872C25.4991 6.31362 25.4597 6.38574 25.4335 6.42508C25.4073 6.4513 25.3811 6.48409 25.3548 6.52342C25.3811 6.54965 25.4073 6.57588 25.4335 6.6021C25.4729 6.62833 25.5056 6.65455 25.5319 6.68078C25.5188 6.74634 25.5188 6.79224 25.5319 6.81846C25.5581 6.84469 25.5778 6.87747 25.5909 6.91681C25.604 7.03483 25.6302 7.10039 25.6695 7.1135C25.7089 7.1135 25.7613 7.10695 25.8269 7.09383C25.9843 7.01516 26.0629 7.00204 26.0629 7.05449C26.0629 7.10695 26.0957 7.13973 26.1613 7.15284C26.2268 7.13973 26.2793 7.1135 26.3186 7.07416C26.358 7.02171 26.4235 6.99549 26.5153 6.99549C26.6202 7.06105 26.6924 7.08728 26.7317 7.07416C26.771 7.06105 26.8235 7.05449 26.889 7.05449C26.9415 7.02827 26.9874 6.99549 27.0267 6.95615C27.0792 6.91681 27.1447 6.89714 27.2234 6.89714C27.407 6.9627 27.5447 6.97582 27.6365 6.93648C27.7414 6.89714 27.8463 6.8578 27.9512 6.81846C27.9774 6.76601 28.0036 6.72012 28.0299 6.68078C28.0692 6.62833 28.1151 6.58899 28.1675 6.56276C28.1938 6.53654 28.2331 6.52998 28.2856 6.54309C28.338 6.55621 28.3774 6.55621 28.4036 6.54309C28.4298 6.47753 28.4495 6.41196 28.4626 6.3464C28.4757 6.28084 28.5019 6.22183 28.5413 6.16938C28.6331 6.15626 28.7117 6.10381 28.7773 6.01202C28.7117 5.85467 28.7248 5.69731 28.8166 5.53996C28.8035 5.4744 28.8035 5.42194 28.8166 5.38261C28.8429 5.34327 28.8625 5.29737 28.8756 5.24492L28.9543 5.16624Z" fill="#FF0000"/>
<path d="M21.4554 10.6146C21.5341 10.6146 21.5668 10.6539 21.5537 10.7326C21.5406 10.8113 21.5472 10.8768 21.5734 10.9293C21.5603 10.9817 21.5406 11.0211 21.5144 11.0473C21.5013 11.0735 21.4882 11.1063 21.4751 11.1456C21.4619 11.2374 21.4488 11.3292 21.4357 11.421C21.4357 11.4997 21.4226 11.5718 21.3964 11.6374C21.2653 11.8078 21.2062 11.9193 21.2194 11.9717C21.2325 12.0242 21.2325 12.0832 21.2194 12.1488C21.1538 12.3192 21.121 12.4504 21.121 12.5422C21.0686 12.6208 21.0358 12.7192 21.0227 12.8372C21.0096 12.9552 21.0096 13.0667 21.0227 13.1716C20.9964 13.2503 20.944 13.3093 20.8653 13.3486C20.7866 13.3879 20.7211 13.4404 20.6686 13.506C20.6686 13.5715 20.6686 13.6436 20.6686 13.7223C20.6817 13.7879 20.6621 13.8403 20.6096 13.8797C20.4916 13.9452 20.4391 14.0042 20.4523 14.0567C20.4654 14.1091 20.4785 14.155 20.4916 14.1944C20.4129 14.3517 20.367 14.4566 20.3539 14.5091C20.3539 14.5484 20.3605 14.6009 20.3736 14.6664C20.3605 14.8107 20.3342 14.9025 20.2949 14.9418C20.2293 14.9418 20.1703 14.9484 20.1179 14.9615C20.0785 14.9746 20.0261 14.9943 19.9605 15.0205C19.8687 15.0205 19.7966 15.0008 19.7442 14.9615C19.613 14.9877 19.5409 14.9877 19.5278 14.9615C19.5147 14.9484 19.495 14.9287 19.4688 14.9025C19.4032 14.8894 19.3639 14.909 19.3508 14.9615C19.3508 15.0139 19.318 15.0336 19.2524 15.0205C19.1869 14.9025 19.1213 14.8369 19.0557 14.8238C19.0033 14.8238 18.9508 14.8304 18.8984 14.8435C18.8459 14.8172 18.7804 14.8041 18.7017 14.8041C18.623 14.8041 18.5509 14.8107 18.4853 14.8238C18.446 14.8107 18.3739 14.791 18.269 14.7648C18.1772 14.7517 18.1182 14.7386 18.0919 14.7254C18.0526 14.7648 18.0133 14.8238 17.9739 14.9025C17.9477 14.9943 17.8952 15.0467 17.8166 15.0598C17.7641 14.968 17.7379 14.8959 17.7379 14.8435C17.751 14.791 17.7641 14.732 17.7772 14.6664C17.6592 14.8107 17.5084 14.8762 17.3248 14.8631C17.1413 14.85 17.0101 14.85 16.9315 14.8631C16.8659 14.8762 16.7807 14.8828 16.6758 14.8828C16.5709 14.8828 16.5053 14.8566 16.4791 14.8041C16.3479 14.7779 16.2758 14.7845 16.2627 14.8238C16.2627 14.8631 16.2365 14.8894 16.184 14.9025C16.0529 14.8894 15.9677 14.8762 15.9283 14.8631C15.8103 14.8238 15.7251 14.8304 15.6726 14.8828C15.6464 14.9221 15.6267 14.9549 15.6136 14.9811C15.6005 15.0205 15.5743 15.0533 15.5349 15.0795C15.3907 14.9877 15.3055 14.9549 15.2792 14.9811C15.2661 15.0074 15.2268 15.0139 15.1612 15.0008C15.135 14.8828 15.1153 14.8238 15.1022 14.8238C15.0891 14.8238 15.076 14.8172 15.0629 14.8041C14.9973 14.8172 14.9449 14.8369 14.9055 14.8631C14.8793 14.9025 14.8268 14.9156 14.7482 14.9025C14.5908 14.85 14.5056 14.8172 14.4925 14.8041C14.4925 14.791 14.4794 14.7779 14.4531 14.7648C14.4007 14.7779 14.3482 14.7779 14.2958 14.7648C14.2433 14.7648 14.1909 14.7779 14.1384 14.8041C13.9811 14.8304 13.8368 14.8435 13.7057 14.8435C13.6401 14.8697 13.5352 14.8959 13.391 14.9221C13.2599 14.9484 13.1418 14.9353 13.0369 14.8828C12.9976 14.7386 12.9451 14.6796 12.8796 14.7058C12.8271 14.732 12.7747 14.7517 12.7222 14.7648C12.6829 14.791 12.6436 14.8107 12.6042 14.8238C12.5649 14.8369 12.5124 14.8566 12.4469 14.8828C12.3944 14.8828 12.3551 14.8762 12.3288 14.8631C12.3026 14.8631 12.2698 14.8566 12.2305 14.8435C12.1912 14.8566 12.1453 14.8697 12.0928 14.8828C12.0535 14.909 12.0076 14.909 11.9551 14.8828C11.9814 14.8172 12.0207 14.7648 12.0731 14.7254C12.1256 14.6861 12.178 14.6468 12.2305 14.6074C12.2698 14.5419 12.3288 14.4894 12.4075 14.4501C12.5255 14.3321 12.5911 14.2731 12.6042 14.2731C12.6304 14.2731 12.6567 14.2665 12.6829 14.2534C12.7485 14.214 12.7878 14.155 12.8009 14.0764C12.814 13.9977 12.8337 13.919 12.8599 13.8403C12.9386 13.7354 12.9583 13.6699 12.9189 13.6436C12.8927 13.6174 12.8861 13.5715 12.8993 13.506C12.9517 13.4273 13.0632 13.3879 13.2336 13.3879C13.2599 13.3224 13.2599 13.2634 13.2336 13.2109C13.2074 13.1585 13.2074 13.0863 13.2336 12.9946C13.2599 12.9683 13.2926 12.9552 13.332 12.9552C13.3713 12.9421 13.4041 12.9224 13.4303 12.8962C13.4434 12.8306 13.4434 12.7782 13.4303 12.7389C13.4172 12.6864 13.3975 12.6274 13.3713 12.5618C13.3975 12.5094 13.4041 12.4569 13.391 12.4045C13.391 12.352 13.3844 12.2996 13.3713 12.2471C13.3844 12.2078 13.3975 12.175 13.4107 12.1488C13.4238 12.1225 13.4303 12.0832 13.4303 12.0308C13.3779 11.8996 13.3713 11.7685 13.4107 11.6374C13.3975 11.598 13.3648 11.5718 13.3123 11.5587C13.273 11.5456 13.2467 11.5194 13.2336 11.48C13.273 11.3227 13.273 11.2374 13.2336 11.2243C13.2074 11.1981 13.1812 11.1653 13.155 11.126C13.155 11.0604 13.1746 11.0211 13.214 11.008C13.2533 10.9817 13.2861 10.9489 13.3123 10.9096C13.3123 10.7785 13.2926 10.6736 13.2533 10.5949C13.332 10.4375 13.3779 10.3458 13.391 10.3195C13.4172 10.2802 13.4172 10.2277 13.391 10.1622C13.4041 10.0835 13.4107 10.0179 13.4107 9.96548C13.4238 9.91303 13.4303 9.85402 13.4303 9.78846C13.391 9.64422 13.391 9.56554 13.4303 9.55243C13.4697 9.53931 13.4828 9.49998 13.4697 9.43441C13.4434 9.40819 13.3844 9.35573 13.2926 9.27706C13.2926 9.18527 13.2795 9.1197 13.2533 9.08036C13.2271 9.02791 13.214 8.95579 13.214 8.864C13.2664 8.74599 13.2861 8.66731 13.273 8.62797C13.2599 8.57552 13.2664 8.52962 13.2926 8.49029C13.2795 8.45095 13.2599 8.41817 13.2336 8.39194C13.2074 8.36571 13.1877 8.33293 13.1746 8.29359C13.1877 8.18869 13.2271 8.0969 13.2926 8.01822C13.2664 7.92643 13.273 7.85431 13.3123 7.80186C13.3516 7.7363 13.3779 7.66418 13.391 7.5855C13.391 7.51993 13.3844 7.46748 13.3713 7.42814C13.3582 7.37569 13.3648 7.31669 13.391 7.25112C13.3779 7.21178 13.3582 7.179 13.332 7.15277C13.3058 7.11344 13.2861 7.0741 13.273 7.03476C13.273 6.92986 13.2664 6.87085 13.2533 6.85774C13.2402 6.84462 13.2271 6.82495 13.214 6.79873C13.214 6.73316 13.2271 6.69382 13.2533 6.68071C13.2795 6.65449 13.3058 6.62826 13.332 6.60203C13.2664 6.44468 13.2402 6.35945 13.2533 6.34633C13.2402 6.20209 13.2599 6.11686 13.3123 6.09063C13.3779 6.06441 13.4238 6.02507 13.45 5.97262C13.4107 5.94639 13.3648 5.92017 13.3123 5.89394C13.273 5.86771 13.2402 5.84149 13.214 5.81526C13.214 5.7497 13.2205 5.69725 13.2336 5.65791C13.2599 5.61857 13.2861 5.57923 13.3123 5.53989C13.3254 5.2383 13.2795 5.04816 13.1746 4.96948C13.1615 4.91703 13.1615 4.87769 13.1746 4.85147C13.1877 4.81213 13.1943 4.75968 13.1943 4.69411C13.0894 4.54987 13.0959 4.38596 13.214 4.20238C13.1353 4.07125 13.1025 3.99913 13.1156 3.98602C13.1418 3.95979 13.1681 3.93357 13.1943 3.90734C13.1812 3.84178 13.1746 3.78933 13.1746 3.74999C13.1877 3.71065 13.2074 3.6582 13.2336 3.59263C13.2205 3.46151 13.2074 3.36316 13.1943 3.2976C13.1812 3.23203 13.1746 3.16647 13.1746 3.1009C13.2271 3.04845 13.273 2.96977 13.3123 2.86487C13.273 2.72063 13.2599 2.60917 13.273 2.53049C13.2992 2.4387 13.2992 2.34691 13.273 2.25512C13.1943 2.20267 13.1353 2.12399 13.0959 2.01909C13.0566 1.88796 13.0304 1.81584 13.0173 1.80273C12.9386 1.64538 12.8599 1.56014 12.7812 1.54703C12.7026 1.5208 12.6501 1.47491 12.6239 1.40934C12.637 1.27822 12.6108 1.21265 12.5452 1.21265C12.4796 1.19954 12.4337 1.16676 12.4075 1.1143C12.3944 0.956951 12.3616 0.878273 12.3092 0.878273C12.2567 0.865161 12.2043 0.852048 12.1518 0.838935C12.1387 0.799596 12.0994 0.747145 12.0338 0.681581C11.9682 0.616016 11.9223 0.570121 11.8961 0.543896C12.1059 0.478331 12.2108 0.458662 12.2108 0.484888C12.2108 0.511113 12.2698 0.504557 12.3879 0.465218C12.401 0.478331 12.4469 0.484888 12.5255 0.484888C12.6173 0.471775 12.6698 0.471775 12.6829 0.484888C12.7747 0.524226 12.8271 0.537339 12.8402 0.524226C12.8534 0.511113 12.873 0.504557 12.8993 0.504557C13.0697 0.51767 13.1484 0.498001 13.1353 0.445549C13.1615 0.419324 13.1943 0.406211 13.2336 0.406211C13.2861 0.406211 13.3385 0.399654 13.391 0.386541C13.4959 0.347203 13.5942 0.327534 13.686 0.327534C13.7122 0.353759 13.7188 0.393098 13.7057 0.445549C13.7057 0.498001 13.7057 0.543896 13.7057 0.583234C13.7844 0.557008 13.8368 0.51767 13.863 0.465218C13.9024 0.412767 13.9614 0.379985 14.0401 0.366872C14.1056 0.379985 14.1778 0.373429 14.2564 0.347203C14.3351 0.320977 14.4007 0.340646 14.4531 0.406211C14.6367 0.379985 14.8072 0.379985 14.9645 0.406211C15.0301 0.379985 15.0891 0.353759 15.1415 0.327534C15.2071 0.301308 15.2727 0.307864 15.3382 0.347203C15.3907 0.42588 15.43 0.465218 15.4563 0.465218C15.4825 0.465218 15.5022 0.478331 15.5153 0.504557C15.5022 0.622573 15.5218 0.720919 15.5743 0.799596C15.5743 0.904499 15.5546 0.983176 15.5153 1.03563C15.4759 1.08808 15.4628 1.16676 15.4759 1.27166C15.5415 1.40279 15.5874 1.49458 15.6136 1.54703C15.5874 1.62571 15.5612 1.70438 15.5349 1.78306C15.5218 1.84862 15.4956 1.90763 15.4563 1.96008C15.5087 2.16989 15.5087 2.31413 15.4563 2.39281C15.5349 2.51082 15.5612 2.65507 15.5349 2.82553C15.5218 2.98289 15.5415 3.13368 15.5939 3.27793C15.5808 3.40905 15.5808 3.48773 15.5939 3.51396C15.6071 3.52707 15.6202 3.54674 15.6333 3.57296C15.6333 3.74343 15.6398 3.84834 15.653 3.88767C15.6792 3.9139 15.6857 3.95979 15.6726 4.02536C15.6595 4.20894 15.653 4.33351 15.653 4.39908C15.6005 4.50398 15.5874 4.61544 15.6136 4.73345C15.6398 4.85147 15.6464 4.9826 15.6333 5.12684C15.6071 5.23174 15.6005 5.29731 15.6136 5.32353C15.6267 5.34976 15.6398 5.37598 15.653 5.40221C15.6398 5.44155 15.6333 5.48744 15.6333 5.53989C15.6464 5.57923 15.6398 5.61201 15.6136 5.63824C15.6005 5.74314 15.6005 5.84805 15.6136 5.95295C15.6398 6.04474 15.653 6.12997 15.653 6.20865C15.6005 6.33978 15.5808 6.4119 15.5939 6.42501C15.6202 6.42501 15.6398 6.43812 15.653 6.46435C15.6792 6.56925 15.6792 6.68071 15.653 6.79873C15.6661 6.86429 15.6792 6.9233 15.6923 6.97575C15.7054 7.01509 15.712 7.0741 15.712 7.15277C15.712 7.21834 15.6988 7.2839 15.6726 7.34947C15.6595 7.41503 15.653 7.4806 15.653 7.54616C15.653 7.61172 15.6595 7.68385 15.6726 7.76252C15.6857 7.82809 15.6857 7.89365 15.6726 7.95921C15.6726 8.02478 15.6595 8.08379 15.6333 8.13624C15.6202 8.17558 15.6005 8.22803 15.5743 8.29359C15.6005 8.34604 15.6136 8.40505 15.6136 8.47062C15.6136 8.53618 15.6267 8.58863 15.653 8.62797C15.6661 8.73287 15.6792 8.79844 15.6923 8.82466C15.7185 8.85089 15.7251 8.88367 15.712 8.92301C15.712 8.96235 15.6988 9.00169 15.6726 9.04103C15.6595 9.06725 15.653 9.10003 15.653 9.13937C15.7054 9.29673 15.7251 9.39507 15.712 9.43441C15.6988 9.47375 15.6857 9.51309 15.6726 9.55243C15.6857 9.61799 15.6923 9.69011 15.6923 9.76879C15.6923 9.83435 15.6792 9.89992 15.653 9.96548C15.6661 10.031 15.6726 10.0966 15.6726 10.1622C15.6726 10.2277 15.6595 10.2867 15.6333 10.3392C15.6726 10.4441 15.6923 10.5556 15.6923 10.6736C15.6792 10.7129 15.6595 10.7523 15.6333 10.7916C15.6071 10.8309 15.5939 10.8834 15.5939 10.9489C15.6071 11.1194 15.6071 11.2243 15.5939 11.2637C15.5939 11.303 15.5939 11.3554 15.5939 11.421C15.5939 11.4866 15.6071 11.5718 15.6333 11.6767C15.6333 11.7292 15.6267 11.7816 15.6136 11.8341C15.6136 11.8734 15.6202 11.9127 15.6333 11.9521C15.6333 12.0045 15.6398 12.057 15.653 12.1094C15.6661 12.1619 15.6857 12.2209 15.712 12.2865C15.7251 12.3389 15.7251 12.3914 15.712 12.4438C15.712 12.4831 15.712 12.529 15.712 12.5815C15.7382 12.6471 15.7579 12.7257 15.771 12.8175C15.7841 12.8962 15.8234 12.9552 15.889 12.9946C15.9677 12.9814 16.0332 12.9552 16.0857 12.9159C16.1512 12.8634 16.2365 12.8503 16.3414 12.8765C16.4069 12.8503 16.4856 12.811 16.5774 12.7585C16.6823 12.7061 16.7807 12.6864 16.8724 12.6995C16.9511 12.7913 17.056 12.8241 17.1872 12.7979C17.3314 12.7585 17.4429 12.752 17.5215 12.7782C17.5871 12.7651 17.633 12.7389 17.6592 12.6995C17.6854 12.6471 17.7379 12.6339 17.8166 12.6602C17.8428 12.6995 17.869 12.7454 17.8952 12.7979C17.9346 12.8372 17.9411 12.8831 17.9149 12.9355C17.928 12.9355 17.9674 12.9355 18.0329 12.9355C18.0985 12.9224 18.1641 12.9159 18.2296 12.9159C18.2952 12.9159 18.3542 12.9224 18.4067 12.9355C18.4722 12.9355 18.505 12.9487 18.505 12.9749C18.5443 12.9487 18.5771 12.929 18.6033 12.9159C18.6296 12.8896 18.6689 12.87 18.7214 12.8569C18.7607 12.87 18.8131 12.8569 18.8787 12.8175C18.9443 12.7651 19.0098 12.7192 19.0754 12.6798C19.141 12.6274 19.2065 12.5881 19.2721 12.5618C19.3508 12.5225 19.4098 12.5159 19.4491 12.5422C19.4885 12.5159 19.5212 12.4766 19.5475 12.4241C19.5737 12.3717 19.613 12.3586 19.6655 12.3848C19.731 12.4241 19.7769 12.4307 19.8032 12.4045C19.8425 12.3651 19.895 12.3455 19.9605 12.3455C20.0261 12.3192 20.072 12.2865 20.0982 12.2471C20.1375 12.1947 20.1834 12.1488 20.2359 12.1094C20.249 11.9783 20.2949 11.8865 20.3736 11.8341C20.5309 11.8078 20.6162 11.7685 20.6293 11.716C20.6555 11.6636 20.6555 11.6177 20.6293 11.5784C20.6948 11.5128 20.7276 11.4276 20.7276 11.3227C20.767 11.2571 20.8456 11.2505 20.9637 11.303C21.0161 11.2768 21.0489 11.244 21.062 11.2046C21.0882 11.1522 21.1145 11.0932 21.1407 11.0276C21.2062 10.9621 21.2521 10.8834 21.2784 10.7916C21.3046 10.6998 21.3636 10.6408 21.4554 10.6146Z" fill="#FF0000"/>
<path d="M11.7078 3.14003C11.6685 3.27115 11.6291 3.34983 11.5898 3.37606C11.4456 3.33672 11.3472 3.28427 11.2948 3.2187C11.2554 3.15314 11.2161 3.08757 11.1768 3.02201C11.0456 2.98267 10.9669 2.97612 10.9407 3.00234C10.9276 3.02857 10.8948 3.04168 10.8424 3.04168C10.7899 3.01545 10.7506 2.97612 10.7244 2.92366C10.6981 2.87121 10.6588 2.83187 10.6063 2.80565C10.4621 2.76631 10.3572 2.72697 10.2916 2.68763C10.2261 2.64829 10.1605 2.59584 10.0949 2.53028C10.0294 2.5565 9.94415 2.57617 9.83924 2.58929C9.74745 2.6024 9.68844 2.56962 9.66222 2.49094C9.55732 2.46471 9.45241 2.45816 9.34751 2.47127C9.25572 2.48438 9.16393 2.50405 9.07214 2.53028L8.71809 2.43193C8.56074 2.34014 8.44928 2.32047 8.38372 2.37292C8.33126 2.42538 8.27881 2.46471 8.22636 2.49094C8.17391 2.50405 8.12801 2.4975 8.08868 2.47127C8.06245 2.44504 8.02967 2.42538 7.99033 2.41226C7.92477 2.42538 7.8592 2.43193 7.79364 2.43193C7.72807 2.43193 7.67562 2.44504 7.63628 2.47127C7.47893 2.44504 7.36747 2.4516 7.3019 2.49094C7.24945 2.53028 7.21011 2.58273 7.18389 2.64829C7.23634 2.76631 7.2429 2.83187 7.20356 2.84499C7.16422 2.84499 7.14455 2.87121 7.14455 2.92366C7.27568 3.06791 7.32157 3.15314 7.28224 3.17936C7.2429 3.20559 7.21011 3.25149 7.18389 3.31705C7.21011 3.38261 7.22978 3.43507 7.2429 3.4744C7.26912 3.50063 7.29535 3.53997 7.32157 3.59242C7.30846 3.776 7.31502 3.88746 7.34124 3.9268C7.38058 3.96614 7.40025 4.01859 7.40025 4.08415C7.41336 4.11038 7.41336 4.14316 7.40025 4.1825C7.40025 4.22184 7.40025 4.26773 7.40025 4.32018C7.40025 4.37263 7.40025 4.41853 7.40025 4.45787C7.41336 4.49721 7.41992 4.53655 7.41992 4.57588C7.41992 4.68079 7.38714 4.77913 7.32157 4.87092L7.14455 5.04795C7.18389 5.11351 7.22323 5.17908 7.26257 5.24464C7.3019 5.3102 7.32813 5.38888 7.34124 5.48067C7.28879 5.66425 7.27568 5.78882 7.3019 5.85439C7.32813 5.91995 7.32813 5.98552 7.3019 6.05108C7.24945 6.23466 7.25601 6.37234 7.32157 6.46414C7.40025 6.55592 7.40681 6.6805 7.34124 6.83785C7.39369 7.02143 7.40025 7.146 7.36091 7.21157C7.33469 7.26402 7.30846 7.32303 7.28224 7.38859C7.42648 7.57217 7.49204 7.70986 7.47893 7.80165C7.46582 7.89344 7.45926 7.97867 7.45926 8.05735C7.44615 8.09669 7.44615 8.13602 7.45926 8.17536C7.47237 8.2147 7.47893 8.25404 7.47893 8.29338C7.46582 8.34583 7.4527 8.39828 7.43959 8.45073C7.42648 8.49007 7.41336 8.53597 7.40025 8.58842C7.3478 8.64087 7.29535 8.68676 7.2429 8.7261C7.19045 8.76544 7.14455 8.81134 7.10521 8.86379C7.10521 8.92935 7.11177 8.98836 7.12488 9.04081C7.13799 9.09326 7.15111 9.15227 7.16422 9.21783C7.17733 9.27029 7.21011 9.31618 7.26257 9.35552C7.31502 9.38175 7.36091 9.41453 7.40025 9.45387C7.46582 9.51943 7.48548 9.57844 7.45926 9.63089C7.43303 9.67023 7.36747 9.69645 7.26257 9.70957C7.27568 9.85381 7.31502 10.0112 7.38058 10.1816C7.45926 10.339 7.43959 10.4767 7.32157 10.5947C7.32157 10.6996 7.34124 10.7848 7.38058 10.8504C7.41992 10.9028 7.4527 10.975 7.47893 11.0667L7.32157 11.4601C7.33469 11.5519 7.36091 11.6437 7.40025 11.7355C7.43959 11.8142 7.4527 11.9256 7.43959 12.0699C7.37403 12.1748 7.3478 12.2535 7.36091 12.3059C7.37403 12.3584 7.36747 12.4043 7.34124 12.4436C7.34124 12.6534 7.37403 12.7911 7.43959 12.8567C7.51827 12.9222 7.56416 13.0206 7.57727 13.1517C7.55105 13.2041 7.50515 13.2369 7.43959 13.25C7.37403 13.25 7.30846 13.2566 7.2429 13.2697C7.25601 13.3353 7.26912 13.4008 7.28224 13.4664C7.30846 13.532 7.31502 13.6041 7.3019 13.6828C7.32813 13.7352 7.36091 13.7811 7.40025 13.8204C7.43959 13.8598 7.47237 13.9057 7.4986 13.9581C7.47237 14.0237 7.43303 14.0827 7.38058 14.1352C7.34124 14.1745 7.30846 14.2335 7.28224 14.3122C7.28224 14.3777 7.3019 14.4236 7.34124 14.4499C7.38058 14.463 7.40681 14.4958 7.41992 14.5482C7.39369 14.6531 7.37403 14.7383 7.36091 14.8039C7.36091 14.8695 7.3478 14.935 7.32157 15.0006C7.29535 15.0268 7.25601 15.0334 7.20356 15.0203C7.15111 15.0072 7.10521 15.0072 7.06587 15.0203C7.00031 15.0727 6.93474 15.1317 6.86918 15.1973C6.81673 15.2629 6.7315 15.276 6.61348 15.2366C6.5348 15.2629 6.49546 15.3088 6.49546 15.3743C6.50858 15.4399 6.51513 15.4989 6.51513 15.5513C6.44957 15.5907 6.38401 15.5841 6.31844 15.5317C6.26599 15.4923 6.20042 15.4661 6.12175 15.453C6.00373 15.5054 5.93817 15.6104 5.92506 15.7677C5.82015 15.8726 5.74803 15.9447 5.70869 15.9841C5.66935 16.0365 5.63657 16.0955 5.61035 16.1611C5.47922 16.2398 5.38743 16.325 5.33498 16.4168C5.29564 16.5217 5.23007 16.6004 5.13828 16.6528C4.99404 16.6266 4.91537 16.6528 4.90225 16.7315C4.90225 16.7708 4.90881 16.8036 4.92192 16.8298C4.93503 16.8692 4.94159 16.9085 4.94159 16.9479C4.90225 17.0003 4.86291 17.0462 4.82358 17.0855C4.79735 17.1249 4.75801 17.1577 4.70556 17.1839C4.67933 17.2363 4.65966 17.2822 4.64655 17.3216C4.64655 17.374 4.64 17.4199 4.62688 17.4593C4.57443 17.4855 4.52854 17.5248 4.4892 17.5773C4.46297 17.6297 4.43675 17.6887 4.41052 17.7543L4.19416 17.8133C4.15482 17.9182 4.11548 17.9838 4.07614 18.01C4.0368 18.0362 3.9778 18.0493 3.89912 18.0493C3.87289 17.9313 3.87945 17.8461 3.91879 17.7936C3.97124 17.7543 4.01058 17.6953 4.0368 17.6166C4.06303 17.5642 4.08926 17.5052 4.11548 17.4396C4.14171 17.3871 4.17449 17.3347 4.21383 17.2822C4.30562 17.0593 4.37774 16.8626 4.43019 16.6922C4.49575 16.5348 4.52198 16.3643 4.50887 16.1808C4.56132 16.0759 4.61377 15.9644 4.66622 15.8464C4.71867 15.7415 4.73834 15.6169 4.72523 15.4727C4.79079 15.4071 4.8498 15.335 4.90225 15.2563C4.9547 15.1907 5.01371 15.1252 5.07928 15.0596C5.09239 14.876 5.07928 14.7711 5.03994 14.7449C5.01371 14.7318 5.00715 14.6925 5.02027 14.6269C5.04649 14.5351 5.07928 14.4695 5.11861 14.4302C5.17107 14.3909 5.21696 14.3253 5.2563 14.2335C5.23007 14.1679 5.20385 14.1089 5.17762 14.0565C5.1514 14.004 5.12517 13.945 5.09895 13.8795C5.12517 13.8008 5.13173 13.7287 5.11861 13.6631C5.11861 13.5844 5.11206 13.4992 5.09895 13.4074C5.09895 13.3418 5.09239 13.2828 5.07928 13.2304C5.06616 13.1779 5.04649 13.1189 5.02027 13.0533C5.08583 12.9484 5.13173 12.8239 5.15795 12.6796C5.18418 12.5223 5.19073 12.3715 5.17762 12.2272C5.1514 12.1617 5.11206 12.1092 5.05961 12.0699C5.02027 12.0305 4.98749 11.9781 4.96126 11.9125C4.97437 11.847 4.98749 11.8011 5.0006 11.7748C5.01371 11.7355 5.02027 11.6896 5.02027 11.6372C4.99404 11.5847 4.96126 11.5519 4.92192 11.5388C4.88258 11.5257 4.8498 11.4864 4.82358 11.4208C4.8498 11.3552 4.88258 11.3093 4.92192 11.2831C4.97437 11.2438 5.00715 11.1913 5.02027 11.1258C4.99404 11.0602 4.96126 10.9946 4.92192 10.9291C4.88258 10.8635 4.8498 10.7914 4.82358 10.7127C4.90225 10.516 4.9547 10.3652 4.98093 10.2603C5.05961 10.1816 5.11206 10.0571 5.13828 9.88659C5.12517 9.7948 5.09239 9.73579 5.03994 9.70957C5.0006 9.67023 4.96782 9.61778 4.94159 9.55221C4.94159 9.48665 4.9547 9.42764 4.98093 9.37519C5.00715 9.32274 5.01371 9.25062 5.0006 9.15883C5.05305 9.09326 5.08583 9.0277 5.09895 8.96213C5.12517 8.88346 5.1514 8.81134 5.17762 8.74577C5.1514 8.6671 5.11861 8.60809 5.07928 8.56875C5.03994 8.52941 5.01371 8.46385 5.0006 8.37206C5.07928 8.22781 5.12517 8.13602 5.13828 8.09669C5.1514 8.05735 5.16451 8.01801 5.17762 7.97867C5.1514 7.92622 5.13173 7.88032 5.11861 7.84098C5.11861 7.80165 5.1055 7.76886 5.07928 7.74264C5.03994 7.42793 4.98093 7.13289 4.90225 6.85752C4.92848 6.70017 4.94815 6.60838 4.96126 6.58215C4.97437 6.54281 4.96782 6.50347 4.94159 6.46414C4.96782 6.39857 4.97437 6.33301 4.96126 6.26744C4.96126 6.18877 4.96782 6.11664 4.98093 6.05108C5.02027 5.9724 5.04649 5.90684 5.05961 5.85439C5.07272 5.78882 5.09239 5.72326 5.11861 5.65769C5.11861 5.59213 5.09895 5.54624 5.05961 5.52001C5.03338 5.49378 5.01371 5.45444 5.0006 5.40199C5.02682 5.29709 5.06616 5.2053 5.11861 5.12662C5.17107 5.04795 5.19073 4.94304 5.17762 4.81191C5.1514 4.78569 5.11861 4.76602 5.07928 4.75291C5.05305 4.73979 5.02682 4.71357 5.0006 4.67423C5.02682 4.52999 5.03338 4.37263 5.02027 4.20217C5.00715 4.0317 5.01371 3.8809 5.03994 3.74977C5.05305 3.59242 5.05305 3.4744 5.03994 3.39573C5.03994 3.31705 5.02682 3.24493 5.0006 3.17936C4.98749 3.06135 4.96126 2.99578 4.92192 2.98267C4.88258 2.96956 4.8498 2.93022 4.82358 2.86466C4.8498 2.79909 4.88258 2.7532 4.92192 2.72697C4.97437 2.68763 5.00715 2.62862 5.02027 2.54995C4.90225 2.53683 4.82358 2.47783 4.78424 2.37292C4.60066 2.43849 4.46297 2.48438 4.37118 2.51061C4.2925 2.53683 4.21383 2.56306 4.13515 2.58929C4.04336 2.56306 3.89912 2.5565 3.70243 2.56962C3.51885 2.58273 3.3746 2.58929 3.2697 2.58929C3.24348 2.56306 3.21069 2.54339 3.17136 2.53028C3.14513 2.50405 3.11235 2.47783 3.07301 2.4516C2.92877 2.50405 2.85009 2.53028 2.83698 2.53028C2.7583 2.50405 2.66651 2.48438 2.56161 2.47127C2.46982 2.45816 2.36491 2.46471 2.2469 2.49094C2.22067 2.56962 2.16167 2.6024 2.06988 2.58929C1.97809 2.57617 1.89941 2.5565 1.83384 2.53028C1.74205 2.62207 1.60437 2.71386 1.42079 2.80565C1.28966 2.83187 1.21754 2.87121 1.20443 2.92366C1.1782 2.97612 1.13886 3.01545 1.08641 3.04168C1.03396 3.04168 1.00118 3.02857 0.988065 3.00234C0.961839 2.97612 0.929057 2.95645 0.889719 2.94333C0.732365 3.06135 0.634018 3.15314 0.59468 3.2187C0.555341 3.28427 0.496333 3.33672 0.417656 3.37606C0.325866 3.34983 0.253745 3.28427 0.201294 3.17936C0.266858 3.08757 0.332422 3.00234 0.397987 2.92366C0.463551 2.83187 0.516002 2.74664 0.555341 2.66796C0.555341 2.6024 0.561897 2.5565 0.57501 2.53028C0.588123 2.50405 0.601236 2.47127 0.614349 2.43193C0.548785 2.3008 0.529115 2.23524 0.555341 2.23524C0.581567 2.22213 0.607792 2.20246 0.634018 2.17623C0.68647 2.11067 0.719252 2.02543 0.732365 1.92053C0.745477 1.81563 0.784816 1.73039 0.85038 1.66483C0.955283 1.52059 0.994622 1.44191 0.968396 1.4288C0.94217 1.41569 0.935614 1.3829 0.948727 1.33045C0.961839 1.25177 1.01429 1.20588 1.10608 1.19277C1.19787 1.17965 1.26344 1.14032 1.30277 1.07475C1.28966 1.00919 1.28966 0.950179 1.30277 0.897728C1.30277 0.845276 1.28966 0.786268 1.26344 0.720704C1.36834 0.589576 1.4339 0.537124 1.46013 0.56335C1.47324 0.589576 1.49291 0.596132 1.51914 0.583019C1.55847 0.386326 1.64371 0.28798 1.77484 0.28798C1.82729 0.301093 1.90597 0.333875 2.01087 0.386326C2.16822 0.465003 2.2469 0.550237 2.2469 0.642027C2.31246 0.642027 2.35836 0.628914 2.38458 0.602688C2.42392 0.576463 2.47637 0.56335 2.54194 0.56335C2.6075 0.537124 2.65995 0.504342 2.69929 0.465003C2.75174 0.425665 2.83042 0.405996 2.93532 0.405996C2.98778 0.432221 3.014 0.517455 3.014 0.661696C3.07957 0.635471 3.13857 0.602688 3.19102 0.56335C3.24348 0.524011 3.30248 0.491229 3.36805 0.465003C3.39427 0.465003 3.45984 0.47156 3.56474 0.484673C3.66964 0.497786 3.73521 0.510898 3.76143 0.524011C3.827 0.537124 3.89256 0.524011 3.95813 0.484673C4.02369 0.445334 4.0827 0.425665 4.13515 0.425665C4.1876 0.425665 4.2335 0.438778 4.27284 0.465003C4.32529 0.478116 4.37118 0.497786 4.41052 0.524011C4.46297 0.510898 4.50231 0.497786 4.52854 0.484673C4.56787 0.458447 4.60721 0.438778 4.64655 0.425665C4.85636 0.478116 4.99404 0.491229 5.05961 0.465003C5.13828 0.425665 5.23007 0.405996 5.33498 0.405996C5.40054 0.419108 5.45955 0.432221 5.512 0.445334C5.57756 0.458447 5.64313 0.47156 5.70869 0.484673C5.73492 0.524011 5.76114 0.56335 5.78737 0.602688C5.82671 0.642027 5.8726 0.668253 5.92506 0.681366C6.01684 0.681366 6.07585 0.65514 6.10208 0.602688C6.14142 0.550237 6.18076 0.497786 6.22009 0.445334C6.325 0.47156 6.4299 0.458447 6.5348 0.405996C6.63971 0.353544 6.7315 0.360101 6.81017 0.425665C6.86262 0.412552 6.90196 0.392883 6.92819 0.366657C6.95441 0.327318 6.9872 0.294536 7.02653 0.268311C7.07899 0.268311 7.11832 0.274867 7.14455 0.28798C7.18389 0.301093 7.21667 0.314206 7.2429 0.327318C7.36091 0.314206 7.47237 0.314206 7.57727 0.327318C7.69529 0.340431 7.78708 0.373213 7.85264 0.425665C7.97066 0.399439 8.05589 0.405996 8.10835 0.445334C8.21325 0.432221 8.29848 0.405996 8.36405 0.366657C8.44272 0.327318 8.52796 0.314206 8.61975 0.327318C8.75088 0.392883 8.86233 0.419108 8.95412 0.405996C9.05903 0.392883 9.14426 0.419108 9.20982 0.484673C9.35407 0.419108 9.49175 0.419108 9.62288 0.484673C9.72778 0.458447 9.81957 0.425665 9.89825 0.386326C9.97693 0.346988 10.0622 0.314206 10.154 0.28798C10.2851 0.28798 10.3244 0.353544 10.272 0.484673C10.39 0.56335 10.4555 0.589576 10.4687 0.56335C10.4818 0.537124 10.5014 0.537124 10.5277 0.56335C10.5801 0.733817 10.6063 0.845276 10.6063 0.897728C10.6195 0.950179 10.6195 1.00919 10.6063 1.07475C10.6457 1.14032 10.7112 1.17965 10.803 1.19277C10.9079 1.20588 10.9669 1.25177 10.9801 1.33045C10.9932 1.3829 10.9866 1.41569 10.9604 1.4288C10.9342 1.44191 10.9211 1.48125 10.9211 1.54681C11.0915 1.69106 11.1768 1.81563 11.1768 1.92053C11.1899 2.02543 11.2226 2.11067 11.2751 2.17623C11.3538 2.30736 11.38 2.37948 11.3538 2.39259C11.3276 2.39259 11.3079 2.40571 11.2948 2.43193C11.3079 2.47127 11.321 2.50405 11.3341 2.53028C11.3472 2.5565 11.3538 2.6024 11.3538 2.66796C11.3931 2.74664 11.4456 2.83187 11.5111 2.92366C11.5898 3.00234 11.6554 3.07446 11.7078 3.14003Z" fill="#FF0000"/>
<path fill-rule="evenodd" clip-rule="evenodd" d="M7.37245 0.152638C7.38476 0.166145 7.39191 0.181444 7.3954 0.194024C7.40061 0.212825 7.39899 0.228312 7.39824 0.23416C7.3966 0.246815 7.39286 0.256399 7.39187 0.258944L7.39183 0.259039C7.39026 0.263056 7.3887 0.266365 7.38768 0.268447C7.38561 0.272688 7.38342 0.276619 7.38174 0.279543C7.37521 0.290944 7.36502 0.30677 7.35526 0.321511C7.33737 0.348548 7.30926 0.38952 7.29711 0.403314C7.2633 0.441673 7.22811 0.479518 7.19221 0.516674C7.19434 0.529495 7.19423 0.543494 7.1908 0.558268C7.18333 0.590367 7.16361 0.609825 7.15337 0.618476C7.1334 0.635344 7.10986 0.643996 7.09791 0.6481C7.08272 0.65332 7.06623 0.65758 7.05084 0.661051C7.04903 0.661461 7.0472 0.661866 7.04536 0.662266C7.0299 0.67706 7.01447 0.691689 6.99913 0.706141C6.77282 0.919375 6.47397 1.11109 6.12265 1.09622C5.82573 1.08365 5.59154 0.981424 5.36883 0.798799C5.35595 0.788244 5.34179 0.776914 5.32679 0.764912C5.27649 0.724668 5.21674 0.676863 5.16446 0.625367C5.09597 0.557891 5.02746 0.472419 4.99927 0.366732C4.98494 0.312991 5.01689 0.257808 5.07063 0.243477C5.09402 0.237239 5.11769 0.239769 5.13814 0.249047C5.15492 0.232672 5.17314 0.226142 5.17613 0.225068L5.17621 0.225039C5.18949 0.220274 5.20094 0.219302 5.20453 0.219008C5.20973 0.218582 5.21423 0.21855 5.21708 0.218571C5.22231 0.218611 5.22758 0.218912 5.23009 0.219055C5.23025 0.219064 5.2304 0.219073 5.23054 0.219081C5.23165 0.219143 5.23239 0.219182 5.23284 0.219205C5.26994 0.218866 5.30717 0.218829 5.3445 0.21922C5.46563 0.220491 5.58668 0.226034 5.70823 0.237635C5.74429 0.241076 5.78108 0.244768 5.81839 0.248913C5.81852 0.248882 5.81865 0.24885 5.81877 0.248818C6.09248 0.181108 6.37066 0.144833 6.64393 0.110868C6.64709 0.107316 6.65029 0.103782 6.65348 0.100332C6.66503 0.0878523 6.68308 0.0691911 6.70211 0.0561437C6.70745 0.0524849 6.71509 0.0477009 6.72448 0.0435493C6.73291 0.03982 6.74933 0.0336138 6.77051 0.0336947C6.795 0.0337882 6.82467 0.0426542 6.84763 0.0675423C6.85256 0.0728877 6.85661 0.078376 6.85996 0.0838116C6.9307 0.0746877 7.00066 0.0650989 7.06997 0.0540013C7.1015 0.0429492 7.13416 0.0340915 7.1679 0.0282793C7.17811 0.0243872 7.18818 0.0207065 7.19773 0.0174265C7.21517 0.0114294 7.24456 0.00173956 7.26976 0.00024024C7.27633 -0.0001504 7.29236 -0.000775694 7.31081 0.00488508C7.33081 0.0110205 7.37156 0.0316145 7.38222 0.0827408C7.38883 0.114413 7.37911 0.139702 7.37245 0.152638ZM6.49878 0.332393C6.47159 0.335968 6.44447 0.339612 6.4174 0.343356C6.42685 0.343745 6.4363 0.344109 6.44576 0.344449C6.46077 0.344987 6.47606 0.345478 6.4916 0.345955C6.49398 0.341435 6.49637 0.336913 6.49878 0.332393Z" fill="#121212"/>
<path fill-rule="evenodd" clip-rule="evenodd" d="M25.772 3.86777C25.7722 3.86484 25.7723 3.86188 25.7723 3.8589C25.7714 3.80329 25.7256 3.75891 25.67 3.75978C25.5132 3.76223 25.3604 3.79331 25.2169 3.8225C25.1626 3.83353 25.1097 3.8443 25.0584 3.85315C25.0304 3.85797 25.0026 3.8614 24.972 3.86516C24.9659 3.86591 24.9597 3.86667 24.9534 3.86746C24.9165 3.87206 24.8761 3.87749 24.8349 3.8865C24.8205 3.88965 24.805 3.89383 24.7906 3.89997C24.7808 3.90417 24.7504 3.91758 24.7317 3.95038C24.7203 3.9703 24.7147 3.9949 24.7189 4.02066C24.7228 4.04438 24.7338 4.06152 24.7421 4.07175C24.7572 4.09032 24.7754 4.10056 24.7832 4.10474C24.8016 4.11457 24.8234 4.12197 24.8374 4.12658C24.8459 4.12937 24.8525 4.13144 24.8582 4.13323C24.8652 4.13542 24.8708 4.1372 24.8771 4.13939C24.8921 4.14463 24.907 4.14997 24.9219 4.15539C24.9217 4.15638 24.9215 4.15739 24.9212 4.15841C24.9151 4.18816 24.9234 4.21322 24.9324 4.22902C24.9463 4.25329 24.9665 4.26469 24.9699 4.26663C24.97 4.2667 24.9701 4.26676 24.9702 4.2668C24.9807 4.27283 24.9904 4.27587 24.9928 4.2766C24.9929 4.27663 24.9929 4.27665 24.993 4.27667C25.0047 4.28034 25.021 4.28345 25.0308 4.2853C25.043 4.2876 25.0564 4.28989 25.0665 4.29161C25.0694 4.2921 25.0717 4.29249 25.0736 4.29281C25.0811 4.2941 25.0812 4.29411 25.0785 4.29346C25.1887 4.32045 25.4081 4.36278 25.5696 4.3933C25.5886 4.3969 25.6069 4.40033 25.6241 4.40357C25.6604 4.41221 25.6971 4.41974 25.7339 4.42589C25.7577 4.42985 25.7773 4.43312 25.785 4.43379L25.785 4.4338C25.7859 4.43388 25.7901 4.43426 25.7953 4.4342C25.7953 4.4342 25.7954 4.4342 25.7954 4.4342C25.797 4.43419 25.8068 4.43415 25.8187 4.4312C25.8272 4.42867 25.8512 4.4166 25.8651 4.40513C25.8848 4.37771 25.8931 4.31374 25.8821 4.28412C25.8761 4.27521 25.8665 4.26472 25.8588 4.25733C25.885 4.25319 25.911 4.24853 25.9369 4.24324C25.9522 4.24012 25.9803 4.23375 26.004 4.21674C26.0169 4.20748 26.0423 4.18507 26.0486 4.14571C26.0553 4.10417 26.0362 4.0736 26.024 4.05923C26.0211 4.05588 26.0182 4.05278 26.0151 4.04991C26.0155 4.04896 26.0159 4.048 26.0163 4.04703C26.0362 3.99512 26.0103 3.93685 25.9584 3.91689C25.8968 3.89321 25.8343 3.87771 25.772 3.86777Z" fill="#121212"/>
<path fill-rule="evenodd" clip-rule="evenodd" d="M13.1981 10.5867C13.2143 10.571 13.2609 10.5303 13.3252 10.5446C13.3685 10.5542 13.3919 10.5849 13.4023 10.6056C13.4122 10.6252 13.4157 10.6446 13.4172 10.6575C13.4191 10.6733 13.4193 10.6903 13.4185 10.7072C13.4243 10.6984 13.43 10.69 13.4356 10.6824C13.4403 10.676 13.4458 10.669 13.4518 10.6623C13.4563 10.6573 13.467 10.6457 13.4823 10.6364C13.4899 10.6319 13.5067 10.6228 13.5301 10.6212C13.5585 10.6192 13.5895 10.629 13.6124 10.6534C13.6313 10.6735 13.6371 10.6954 13.6391 10.7057C13.6413 10.7173 13.6414 10.7272 13.6411 10.7335C13.6406 10.7475 13.6378 10.7626 13.6342 10.7771C13.663 10.7866 13.6916 10.7963 13.7201 10.8062C13.7291 10.8034 13.7382 10.8008 13.7472 10.7985C13.786 10.7886 13.836 10.7807 13.8843 10.7928C13.9231 10.8025 13.9459 10.831 13.9555 10.856C13.9615 10.8715 13.9625 10.8856 13.9625 10.8947C13.997 10.9075 14.0315 10.9202 14.0661 10.9327C14.1612 10.967 14.2521 10.9959 14.3441 11.01C14.3559 11.0118 14.3792 11.0163 14.4013 11.0317C14.4137 11.0403 14.4287 11.0545 14.4385 11.0762C14.4487 11.0988 14.4497 11.1217 14.4459 11.1411C14.4393 11.174 14.4194 11.1946 14.4126 11.2014C14.4033 11.2107 14.3934 11.218 14.3862 11.2229C14.3625 11.2389 14.3292 11.2546 14.3198 11.2591C14.3186 11.2596 14.3179 11.26 14.3175 11.2601C14.1336 11.3508 13.9356 11.4304 13.7428 11.5078C13.7263 11.5144 13.7099 11.521 13.6935 11.5276C13.642 11.5873 13.5816 11.6453 13.5188 11.6812C13.512 11.6851 13.5007 11.6909 13.4862 11.6944C13.4723 11.6977 13.4444 11.7014 13.4143 11.6866C13.3983 11.6787 13.3864 11.6679 13.3778 11.6566C13.3695 11.6594 13.3598 11.6621 13.3503 11.6635C13.3459 11.6642 13.3363 11.6654 13.3244 11.6644C13.3172 11.6637 13.2818 11.6604 13.2548 11.628C13.2209 11.5871 13.2321 11.5422 13.2387 11.5257C13.2451 11.5095 13.2542 11.4988 13.2573 11.4952C13.2686 11.4823 13.2831 11.4725 13.2879 11.4693C13.2881 11.4692 13.2883 11.469 13.2884 11.4689C13.3005 11.4608 13.3171 11.4507 13.3348 11.4405C13.3335 11.4407 13.3321 11.4408 13.3308 11.4409C13.3202 11.4418 13.3004 11.4418 13.2787 11.4318C13.2536 11.4203 13.2349 11.3996 13.2255 11.3749C13.2174 11.3536 13.2183 11.3349 13.2195 11.325C13.2196 11.3246 13.2196 11.3241 13.2197 11.3236C13.217 11.3237 13.2142 11.3237 13.2115 11.3236C13.2037 11.3233 13.1749 11.3222 13.1476 11.3022C13.1368 11.2942 13.1265 11.2834 13.1187 11.2698C13.0958 11.2777 13.0734 11.2849 13.0518 11.2919C13.0382 11.2963 13.0249 11.3005 13.012 11.3048C12.9592 11.3224 12.9022 11.2939 12.8846 11.2411C12.867 11.1883 12.8956 11.1313 12.9483 11.1137C12.957 11.1108 12.9655 11.108 12.9738 11.1053C12.9765 11.0847 12.9818 11.0613 12.9879 11.0383C13.0013 10.9872 13.0228 10.9227 13.0477 10.8589C13.019 10.8573 12.9899 10.8564 12.9604 10.8564C12.9048 10.8564 12.8597 10.8113 12.8597 10.7557C12.8597 10.7001 12.9048 10.655 12.9604 10.655C13.0215 10.655 13.0811 10.6583 13.1395 10.6644C13.1402 10.6633 13.1408 10.6621 13.1415 10.661C13.1573 10.6351 13.1762 10.6079 13.1981 10.5867ZM13.5548 11.6096C13.5548 11.6096 13.5549 11.6093 13.5551 11.6088C13.5549 11.6093 13.5548 11.6095 13.5548 11.6096Z" fill="#121212"/>
<path fill-rule="evenodd" clip-rule="evenodd" d="M6.6059 10.9175C6.62107 10.864 6.67675 10.8329 6.73026 10.8481C6.79353 10.8661 6.85434 10.8879 6.91298 10.913C6.91847 10.915 6.92317 10.917 6.92692 10.9187C6.93002 10.9201 6.93312 10.9216 6.93621 10.9232C7.08424 10.9893 7.21849 11.0759 7.34401 11.1717C7.43056 11.2218 7.51902 11.2736 7.6057 11.3281C7.79528 11.4473 7.98166 11.5828 8.1305 11.7529C8.13518 11.7583 8.16473 11.7934 8.18956 11.8284C8.20102 11.8445 8.21629 11.8673 8.22581 11.8892L8.22592 11.8894C8.22919 11.8969 8.24051 11.923 8.23697 11.9545C8.23474 11.9744 8.22568 12.0028 8.19929 12.0247C8.17414 12.0455 8.14665 12.0492 8.1303 12.0492C8.07956 12.0492 8.03351 12.0267 8.00107 12.0072C7.96594 11.9861 7.93149 11.9588 7.90105 11.9325C7.87025 11.9059 7.84099 11.8779 7.81661 11.8543C7.81173 11.8496 7.80714 11.8451 7.80281 11.8409C7.78422 11.8229 7.77061 11.8096 7.76059 11.8009C7.69863 11.7468 7.63856 11.6924 7.57937 11.6388C7.56732 11.6279 7.55531 11.617 7.54332 11.6061C7.56489 11.653 7.58473 11.7005 7.60256 11.7492C7.68389 11.863 7.7552 11.9924 7.79267 12.1329C7.80141 12.1657 7.80745 12.1989 7.80598 12.2295C7.80462 12.2579 7.79472 12.3109 7.74307 12.3406C7.69618 12.3675 7.64927 12.3543 7.6295 12.3472C7.60561 12.3387 7.58352 12.3252 7.56581 12.313C7.54382 12.2978 7.52078 12.2789 7.49869 12.2591C7.52776 12.3674 7.55834 12.5223 7.5752 12.6445C7.58507 12.7161 7.59225 12.7895 7.58738 12.8361C7.58618 12.8475 7.58343 12.8673 7.57427 12.8869C7.56571 12.9053 7.53403 12.9556 7.46809 12.9509C7.42159 12.9476 7.39422 12.9161 7.38763 12.9085L7.38755 12.9084C7.37637 12.8955 7.36718 12.8807 7.35973 12.8673C7.26908 12.7042 7.21684 12.5288 7.17486 12.3585C7.16084 12.3016 7.14813 12.2461 7.13564 12.1916C7.10974 12.0787 7.08484 11.97 7.0514 11.8623C7.01697 11.7513 6.9697 11.6443 6.91968 11.5312C6.91438 11.5192 6.90904 11.5071 6.90369 11.4949C6.85569 11.386 6.80654 11.2711 6.77143 11.1497C6.75921 11.1222 6.749 11.0978 6.74322 11.0809C6.74179 11.0768 6.73936 11.0695 6.73747 11.0612C6.71706 11.0543 6.69635 11.0479 6.67531 11.0419C6.6218 11.0267 6.59072 10.971 6.6059 10.9175ZM7.38684 12.8167C7.38683 12.8167 7.38687 12.8163 7.387 12.8157C7.38691 12.8164 7.38685 12.8167 7.38684 12.8167Z" fill="#121212"/>
<path fill-rule="evenodd" clip-rule="evenodd" d="M24.8816 11.9631C25.1585 12.135 25.4471 12.2787 25.7427 12.4259C25.7817 12.4453 25.8207 12.4648 25.8599 12.4844C25.9097 12.5092 25.9298 12.5697 25.905 12.6195C25.8801 12.6692 25.8196 12.6894 25.7698 12.6645C25.754 12.6566 25.7382 12.6487 25.7224 12.6408C25.7211 12.6433 25.7198 12.6457 25.7183 12.648C25.7004 12.6766 25.6819 12.7053 25.6625 12.7266C25.6471 12.7434 25.6228 12.7648 25.5889 12.7739C25.5884 12.7782 25.5877 12.7827 25.5868 12.7872C25.5834 12.8028 25.5754 12.8249 25.5562 12.8443C25.5471 12.8535 25.537 12.8606 25.5265 12.8658C25.5297 12.8703 25.5326 12.8745 25.535 12.8784C25.5373 12.882 25.5412 12.8882 25.5446 12.8956C25.5462 12.899 25.5495 12.9066 25.5519 12.9166L25.5519 12.917C25.5532 12.9225 25.5607 12.9543 25.5423 12.9883C25.5307 13.0096 25.5119 13.026 25.4894 13.0346C25.4693 13.0422 25.4516 13.0417 25.4415 13.0405C25.4228 13.0383 25.4094 13.0314 25.4057 13.0295C25.396 13.0244 25.3887 13.0187 25.3863 13.0168C25.3797 13.0116 25.3732 13.0055 25.3683 13.0009C25.3482 12.9818 25.3199 12.9516 25.3123 12.9433C25.257 12.8825 25.1996 12.8238 25.1405 12.7636C25.1346 12.7575 25.1286 12.7513 25.1226 12.7452C25.0578 12.679 24.9915 12.6108 24.9281 12.5387C24.8916 12.4971 24.8521 12.4559 24.8105 12.413C24.805 12.4073 24.7993 12.4015 24.7937 12.3956C24.7577 12.3586 24.7204 12.3201 24.6843 12.2808C24.6007 12.1898 24.518 12.0882 24.4595 11.9696C24.454 11.9585 24.4475 11.9431 24.4445 11.9253C24.4415 11.9085 24.3785 11.8018 24.3999 11.7693C24.4231 11.7341 24.5187 11.7966 24.5402 11.7939C24.5604 11.7914 24.5779 11.7945 24.5884 11.7969C24.6265 11.8057 24.6727 11.8308 24.707 11.8508C24.7457 11.8733 24.7865 11.8997 24.8189 11.9212C24.8341 11.9313 24.8477 11.9404 24.8586 11.9477C24.8594 11.9483 24.8602 11.9488 24.8609 11.9493C24.8666 11.9532 24.8713 11.9563 24.875 11.9588C24.8769 11.96 24.8784 11.961 24.8796 11.9618L24.881 11.9627L24.8814 11.963L24.8816 11.9631ZM25.5389 12.5549C25.5397 12.5536 25.5406 12.5521 25.5416 12.5507C25.5325 12.5461 25.5234 12.5416 25.5143 12.537C25.5232 12.5435 25.5314 12.5494 25.5386 12.5547L25.5389 12.5549ZM25.3652 12.9867C25.3654 12.987 25.3654 12.987 25.3651 12.9866L25.3652 12.9867Z" fill="#121212"/>
<path fill-rule="evenodd" clip-rule="evenodd" d="M30.4572 6.48482C30.473 6.50602 30.4912 6.53206 30.5004 6.55041C30.5083 6.56634 30.518 6.59393 30.526 6.618C30.5311 6.63322 30.5364 6.65008 30.5416 6.66727C30.5539 6.6469 30.5731 6.63119 30.5962 6.62333C30.6192 6.6155 30.6389 6.61786 30.6485 6.61965C30.667 6.62311 30.6806 6.63095 30.6848 6.63332C30.696 6.63979 30.7062 6.64788 30.7127 6.65324C30.7273 6.6653 30.7445 6.68132 30.7597 6.69597C30.7908 6.72585 30.8215 6.75773 30.8249 6.76125C30.9039 6.84466 30.9907 6.95026 31.0615 7.06601C31.1317 7.1808 31.1902 7.31185 31.205 7.44504C31.2081 7.47241 31.2088 7.50058 31.204 7.5269C31.1993 7.55252 31.1866 7.58958 31.1513 7.61533C31.1141 7.64241 31.0737 7.64131 31.0479 7.63578C31.0232 7.63047 31.002 7.61936 30.9869 7.61017C30.9563 7.59147 30.9262 7.56501 30.9032 7.54356C30.8896 7.53089 30.8725 7.51403 30.8598 7.50155C30.8532 7.49515 30.8479 7.48989 30.8448 7.48695C30.7894 7.43413 30.7357 7.38069 30.683 7.32685C30.677 7.331 30.6702 7.33475 30.6625 7.33791C30.6222 7.35435 30.5882 7.33915 30.583 7.33686C30.5829 7.3368 30.5828 7.33675 30.5827 7.3367C30.5669 7.32976 30.5554 7.31974 30.5529 7.3175C30.5528 7.3174 30.5527 7.31731 30.5526 7.31724C30.5479 7.31318 30.5435 7.3089 30.54 7.30528C30.5262 7.29129 30.5074 7.26983 30.4897 7.24897C30.4712 7.22733 30.4515 7.20358 30.435 7.18354C30.4304 7.17803 30.4262 7.17289 30.4223 7.16816C30.4115 7.15516 30.4035 7.14536 30.399 7.14015C30.3843 7.12286 30.3692 7.10614 30.3558 7.09138C30.3543 7.08973 30.3527 7.08804 30.3512 7.08633C30.3404 7.07458 30.3288 7.06181 30.3217 7.05309C30.3197 7.05057 30.3156 7.04544 30.3117 7.03921C30.31 7.03647 30.3058 7.0296 30.3023 7.02025C30.3005 7.01555 30.2976 7.00692 30.2962 6.99571C30.295 6.98511 30.2943 6.96443 30.3049 6.94148C30.3065 6.9378 30.3084 6.93434 30.3103 6.9311C30.3059 6.92635 30.3014 6.9216 30.297 6.91685C30.2594 6.87667 30.2611 6.81387 30.3004 6.77574C30.2994 6.77027 30.2986 6.76348 30.2986 6.75596L30.2986 6.75588C30.2985 6.75426 30.2985 6.75003 30.2992 6.74412C30.2557 6.67632 30.2242 6.60101 30.2017 6.54287C30.194 6.52286 30.1867 6.50112 30.1837 6.48082C30.1824 6.47177 30.1803 6.4525 30.1861 6.4306C30.1933 6.40375 30.216 6.36591 30.2639 6.35471C30.2996 6.34638 30.3278 6.35902 30.3365 6.36318C30.3485 6.36889 30.358 6.37581 30.3641 6.38059C30.3767 6.39048 30.3886 6.40245 30.3983 6.4129C30.4184 6.43455 30.4399 6.46149 30.4572 6.48482ZM30.9315 7.29062C30.9436 7.3025 30.9558 7.31434 30.9681 7.32616C30.9621 7.31066 30.9554 7.29504 30.9481 7.27934C30.9427 7.28387 30.9371 7.28759 30.9315 7.29062ZM30.7245 6.73483C30.7245 6.73485 30.7247 6.73543 30.7248 6.73648C30.7245 6.73533 30.7245 6.73481 30.7245 6.73483ZM31.096 7.44058C31.096 7.44058 31.096 7.44057 31.096 7.44054L31.096 7.44058ZM30.3924 7.02269C30.3925 7.02289 30.3925 7.02307 30.3925 7.02323C30.3927 7.02527 30.3925 7.02489 30.3924 7.02269Z" fill="#121212"/>
<path fill-rule="evenodd" clip-rule="evenodd" d="M15.7346 3.5455C15.7736 3.5197 15.7905 3.46928 15.7724 3.42417C15.7518 3.37253 15.6932 3.34741 15.6415 3.36807C15.5839 3.39115 15.5589 3.44492 15.5495 3.46606C15.5438 3.47909 15.539 3.49222 15.5357 3.50136C15.5355 3.50184 15.5353 3.50231 15.5352 3.50277C15.5311 3.51398 15.5295 3.51793 15.5287 3.51969C15.5009 3.57739 15.4712 3.63383 15.4405 3.69213C15.4363 3.70013 15.4321 3.70817 15.4278 3.71625C15.393 3.78249 15.3574 3.85116 15.3249 3.92266C15.3118 3.95164 15.2968 3.98247 15.2813 4.01465C15.2394 4.10114 15.1929 4.1973 15.1631 4.29303C15.1573 4.31152 15.1546 4.33412 15.1601 4.35843C15.1657 4.38303 15.1782 4.40271 15.1925 4.41722C15.2182 4.44325 15.25 4.45334 15.2687 4.45794C15.3087 4.46782 15.3573 4.46815 15.3965 4.46667C15.4384 4.4651 15.4812 4.46086 15.5144 4.45712C15.5281 4.45556 15.5406 4.45404 15.5507 4.45282C15.5528 4.45256 15.5548 4.45232 15.5567 4.45209C15.5652 4.45106 15.5697 4.45056 15.5716 4.45035C15.5727 4.45023 15.573 4.4502 15.5728 4.45021L15.587 4.4495C15.6455 4.44658 15.7041 4.44366 15.7627 4.44101C15.7752 4.47172 15.7979 4.48892 15.8135 4.49756C15.8292 4.50628 15.8445 4.51035 15.8551 4.5125C15.8765 4.51684 15.8993 4.51735 15.9183 4.51691C15.9577 4.516 16.0056 4.51019 16.0501 4.50357C16.0955 4.49682 16.1413 4.48862 16.1777 4.48201C16.1823 4.48117 16.1867 4.48037 16.1909 4.4796C16.2037 4.47726 16.2149 4.47523 16.2243 4.47357C16.2305 4.47248 16.2355 4.47163 16.2394 4.47101C16.2437 4.47033 16.2452 4.47017 16.245 4.47019C16.3352 4.46117 16.4248 4.46232 16.5204 4.46355C16.5544 4.46398 16.5891 4.46443 16.6249 4.46443C16.628 4.46443 16.6324 4.46447 16.6374 4.46452C16.6521 4.46465 16.6726 4.46484 16.6831 4.46424C16.6855 4.4641 16.6896 4.46382 16.6943 4.46317C16.6966 4.46285 16.7006 4.46223 16.7054 4.46107L16.7054 4.46106C16.7085 4.4603 16.72 4.4575 16.7328 4.45002C16.7397 4.44601 16.7917 4.41397 16.782 4.34797C16.7779 4.32076 16.7641 4.30271 16.7559 4.29388C16.7474 4.28479 16.7391 4.27925 16.7345 4.27648C16.7205 4.26793 16.7068 4.26462 16.7054 4.26427C16.7053 4.26425 16.7053 4.26424 16.7053 4.26424C16.6934 4.26115 16.676 4.25883 16.6594 4.25674C16.4244 4.22738 16.1835 4.22535 15.9474 4.23234C15.9432 4.14909 15.9314 4.0673 15.9194 3.99091C15.92 3.99452 15.9154 3.95617 15.9085 3.92622C15.9052 3.91152 15.8992 3.8888 15.8885 3.86827C15.8834 3.85855 15.8728 3.84045 15.8535 3.82548C15.8481 3.82135 15.8421 3.81749 15.8355 3.81415C15.8353 3.80577 15.8341 3.77292 15.8075 3.74452C15.7956 3.73176 15.7826 3.72366 15.7697 3.71877C15.7692 3.71374 15.7682 3.70782 15.7664 3.70143C15.7624 3.68743 15.7475 3.64926 15.7023 3.63363C15.7008 3.63313 15.6994 3.63266 15.6979 3.63223C15.702 3.62387 15.7061 3.61548 15.7102 3.60707C15.716 3.59502 15.7209 3.58154 15.724 3.57295C15.7241 3.57247 15.7243 3.57201 15.7245 3.57156C15.7283 3.56106 15.731 3.5538 15.7338 3.54738C15.7341 3.5467 15.7344 3.54608 15.7346 3.5455ZM15.315 4.26182C15.3151 4.2618 15.3155 4.26193 15.3164 4.26224C15.3154 4.26199 15.315 4.26183 15.315 4.26182ZM15.6835 4.24307C15.7043 4.24206 15.7251 4.24107 15.7461 4.24012C15.7449 4.21639 15.7429 4.19245 15.7404 4.16829C15.7387 4.16837 15.737 4.16841 15.7353 4.16841C15.7316 4.16841 15.728 4.16821 15.7244 4.16782C15.7169 4.18246 15.7076 4.20055 15.6977 4.21839C15.6933 4.22626 15.6885 4.23466 15.6835 4.24307ZM15.6532 4.22453C15.6532 4.22454 15.6532 4.22432 15.6533 4.22383C15.6532 4.22428 15.6532 4.22452 15.6532 4.22453Z" fill="#121212"/>
<path fill-rule="evenodd" clip-rule="evenodd" d="M4.8137 4.7675C4.83966 4.71831 4.90058 4.69948 4.94977 4.72544C5.09811 4.80373 5.22488 4.90704 5.33964 5.01955C5.34763 5.02739 5.36452 5.04118 5.39145 5.06225C5.39713 5.0667 5.40315 5.0714 5.40941 5.07627C5.43042 5.09264 5.45413 5.11111 5.47699 5.12971C5.50658 5.15378 5.53776 5.18047 5.56353 5.20679C5.5854 5.2291 5.61805 5.2653 5.63072 5.30839C5.64231 5.34781 5.63414 5.38376 5.62412 5.40878C5.61406 5.4339 5.59904 5.45603 5.58455 5.47413C5.55553 5.51041 5.51643 5.54545 5.47958 5.57517C5.40697 5.63373 5.32587 5.68519 5.29811 5.70281C5.29731 5.70331 5.29656 5.70379 5.29586 5.70424C5.24303 5.73778 5.18309 5.77247 5.12535 5.80589C5.08412 5.82976 5.04401 5.85298 5.00842 5.87466C4.98882 5.8866 4.96961 5.89861 4.95085 5.91081C4.93226 5.92453 4.91397 5.9385 4.89599 5.95293L4.89591 5.95299L4.89569 5.95317L4.89494 5.95379L4.89249 5.95581C4.89049 5.95748 4.88794 5.95961 4.88489 5.96217C4.87982 5.96642 4.87359 5.97166 4.86654 5.97759L4.86209 5.98132C4.84443 5.99618 4.82266 6.01447 4.8028 6.03094C4.78358 6.04688 4.7642 6.06274 4.75224 6.07178C4.74938 6.07395 4.74514 6.07709 4.74072 6.07997C4.7391 6.08103 4.7339 6.08442 4.72709 6.08764C4.72452 6.08885 4.71537 6.09317 4.70285 6.0956C4.69668 6.09681 4.68343 6.09885 4.6669 6.0961C4.64886 6.09309 4.62201 6.0832 4.60231 6.05647C4.58355 6.03103 4.58194 6.00466 4.58283 5.99036C4.58371 5.97616 4.58742 5.96542 4.58942 5.96023C4.59347 5.94971 4.59842 5.94226 4.6 5.93991C4.60394 5.93402 4.60781 5.92957 4.6092 5.92798C4.61277 5.92389 4.61675 5.91983 4.62001 5.91656C4.68701 5.84957 4.76128 5.79407 4.83641 5.74497C4.86045 5.72732 4.88468 5.71022 4.90874 5.69355C4.87466 5.67196 4.85746 5.63784 4.85305 5.60491C4.84912 5.57557 4.85507 5.54804 4.86148 5.52723C4.86833 5.50497 4.87868 5.4811 4.89145 5.45591C4.89174 5.45534 4.89203 5.45477 4.89232 5.4542C4.89314 5.43727 4.89452 5.42065 4.89575 5.40649C4.89611 5.40231 4.89646 5.39833 4.89679 5.39456C4.89883 5.37132 4.90019 5.35573 4.90019 5.34553C4.90019 5.33179 4.90056 5.26431 4.90242 5.20078C4.90333 5.16932 4.90466 5.1371 4.90666 5.11254C4.90759 5.10102 4.90895 5.08745 4.91125 5.0757L4.91126 5.07563C4.91207 5.07146 4.91459 5.05858 4.92109 5.04501C4.92352 5.03994 4.93316 5.01986 4.95559 5.00433C4.96506 4.99777 4.9776 4.99152 4.99272 4.98836C4.94879 4.95708 4.90331 4.92866 4.85576 4.90357C4.80657 4.87761 4.78774 4.81669 4.8137 4.7675ZM5.26771 5.39322C5.26175 5.40074 5.25575 5.40824 5.24974 5.4157C5.25207 5.41514 5.25438 5.41461 5.25667 5.41411C5.26418 5.41246 5.27732 5.40975 5.2923 5.4092C5.28403 5.40395 5.27583 5.39861 5.26771 5.39322Z" fill="#121212"/>
<path d="M5.48524 5.40482C5.47864 5.40482 5.469 5.40322 5.46551 5.41064C5.46323 5.4155 5.48329 5.40103 5.48588 5.39835C5.49943 5.38434 5.47413 5.38759 5.47069 5.40482" stroke="#121212" stroke-width="0.0335689" stroke-linecap="round"/>
<path d="M6.92761 11.012C7.02419 11.2185 7.17436 11.4139 7.37223 11.5326" stroke="#121212" stroke-width="0.0335689" stroke-linecap="round"/>
<path d="M6.9021 11.0204C6.92999 11.0677 6.97084 11.1056 7.01648 11.1358C7.05604 11.1619 7.09923 11.1789 7.14179 11.1992C7.17696 11.2159 7.20775 11.2375 7.23961 11.2595" stroke="#121212" stroke-width="0.0335689" stroke-linecap="round"/>
<path d="M6.85681 10.9979C7.08277 11.3141 7.29262 11.6448 7.59314 11.8975C7.66332 11.9566 7.74063 12.0043 7.81382 12.059C7.82358 12.0663 7.8309 12.0748 7.83859 12.0841" stroke="#121212" stroke-width="0.0671378" stroke-linecap="round"/>
<path d="M13.3134 11.4563C13.2626 11.4676 13.2202 11.4921 13.1774 11.5203C13.1583 11.5328 13.1806 11.5202 13.1867 11.517C13.2183 11.5005 13.2466 11.479 13.2768 11.4602C13.3095 11.4399 13.3433 11.4263 13.379 11.4126C13.3942 11.4067 13.3965 11.401 13.3786 11.401C13.3167 11.401 13.2466 11.4131 13.1867 11.428C13.1781 11.4302 13.2044 11.4275 13.2131 11.4256C13.2537 11.4164 13.2936 11.4009 13.3323 11.3857C13.3438 11.3813 13.3854 11.3698 13.3901 11.3546C13.3926 11.3465 13.3618 11.3497 13.36 11.3503C13.3435 11.3552 13.3301 11.3658 13.3171 11.3767C13.291 11.3983 13.2612 11.4236 13.2405 11.4507C13.2338 11.4596 13.275 11.4564 13.2816 11.4563C13.3157 11.4557 13.3534 11.4493 13.3839 11.434" stroke="#121212" stroke-width="0.0671378" stroke-linecap="round"/>
<path d="M13.4015 10.7625C13.4091 10.7348 13.4146 10.706 13.4184 10.6775C13.4187 10.6756 13.4204 10.6566 13.4217 10.6599C13.4253 10.6688 13.4247 10.6796 13.4266 10.689C13.4268 10.6899 13.4312 10.7077 13.4325 10.7063C13.4372 10.7016 13.4368 10.6887 13.4372 10.6828C13.4376 10.6758 13.4375 10.6687 13.4375 10.6616C13.4375 10.6548 13.4375 10.6752 13.4375 10.6819C13.4375 10.6853 13.438 10.7025 13.4384 10.7012C13.4409 10.6931 13.4425 10.6834 13.4416 10.675C13.441 10.6691 13.4384 10.6654 13.4338 10.6629C13.426 10.6586 13.4202 10.6427 13.4144 10.6359C13.4117 10.6326 13.4076 10.6243 13.4029 10.6243" stroke="#121212" stroke-width="0.0671378" stroke-linecap="round"/>
<path d="M13.25 10.4801C13.2755 10.5383 13.3127 10.5912 13.3414 10.6478C13.3456 10.656 13.3492 10.6643 13.3519 10.6732C13.3547 10.6823 13.3441 10.6732 13.3412 10.6713" stroke="#121212" stroke-width="0.0671378" stroke-linecap="round"/>
<path d="M13.6069 10.7393C13.6159 10.7577 13.6216 10.7777 13.6291 10.7967C13.6365 10.8156 13.6449 10.8344 13.6536 10.8528C13.6637 10.874 13.675 10.8935 13.675 10.9175" stroke="#121212" stroke-width="0.0671378" stroke-linecap="round"/>
<path d="M13.7175 10.8326C13.7262 10.8326 13.7346 10.8311 13.743 10.8311" stroke="#121212" stroke-width="0.0671378" stroke-linecap="round"/>
<path d="M13.4779 10.6642C13.4607 10.6628 13.4774 10.6598 13.4842 10.6578" stroke="#121212" stroke-width="0.0671378" stroke-linecap="round"/>
<path d="M30.3535 6.73318V6.73799" stroke="#121212" stroke-width="0.0671378" stroke-linecap="round"/>
<path d="M30.2783 6.85141H30.2791" stroke="#121212" stroke-width="0.0671378"/>
<path d="M30.3061 6.81195C30.3039 6.82191 30.303 6.8325 30.3023 6.8426C30.3017 6.85098 30.3005 6.8637 30.3026 6.87253C30.304 6.87816 30.3059 6.87876 30.3104 6.881C30.3212 6.88638 30.333 6.88794 30.3448 6.88925" stroke="#121212" stroke-width="0.0671378"/>
<path d="M30.3014 6.61282C30.2908 6.6371 30.2884 6.66771 30.2861 6.69355C30.2833 6.7245 30.2807 6.75591 30.2813 6.787C30.2822 6.82986 30.2919 6.87185 30.3051 6.9125C30.3246 6.97284 30.353 7.03869 30.4041 7.07888C30.4106 7.08394 30.4153 7.08873 30.4204 7.09516" stroke="#121212" stroke-width="0.0671378"/>
<path d="M30.3901 6.64185C30.399 6.64215 30.4075 6.64358 30.4163 6.64524C30.4455 6.6508 30.4749 6.65539 30.5042 6.66044C30.5392 6.66648 30.5746 6.67245 30.609 6.68192C30.64 6.69045 30.668 6.70223 30.6881 6.72827C30.702 6.74622 30.7124 6.76702 30.7226 6.78719C30.7297 6.80123 30.7373 6.81559 30.7407 6.83108C30.7428 6.84086 30.7431 6.85044 30.7431 6.86037" stroke="#121212" stroke-width="0.0671378"/>
<path d="M30.4086 6.56833C30.4327 6.5699 30.4543 6.59366 30.4716 6.60772C30.5487 6.67067 30.6149 6.74516 30.6875 6.813C30.7068 6.83103 30.7276 6.84863 30.7443 6.86929C30.7505 6.87703 30.7546 6.88474 30.7561 6.89459C30.7577 6.90577 30.7581 6.91539 30.7493 6.92286" stroke="#121212" stroke-width="0.0671378"/>
<path d="M30.709 6.85362C30.7194 6.83297 30.7004 6.80248 30.6912 6.78582C30.6577 6.72464 30.6119 6.67176 30.5509 6.63699C30.521 6.61995 30.4903 6.60431 30.4594 6.58919C30.4471 6.58312 30.4347 6.57633 30.4207 6.57478C30.4175 6.57442 30.4027 6.57232 30.4009 6.57597" stroke="#121212" stroke-width="0.0671378"/>
<path d="M30.5952 6.63171V6.6334" stroke="#121212" stroke-width="0.0671378"/>
<path d="M30.5952 6.62835V6.62753" stroke="#121212" stroke-width="0.0671378"/>
<path d="M30.5947 6.62488V6.63345" stroke="#121212" stroke-width="0.0671378"/>
<path d="M30.2137 6.41838C30.2087 6.39154 30.2064 6.36442 30.2057 6.33716C30.2055 6.32961 30.2051 6.32203 30.2052 6.31448C30.2053 6.31067 30.2051 6.3054 30.2075 6.30209C30.2125 6.2954 30.2279 6.29782 30.2342 6.30065C30.248 6.30685 30.2575 6.32161 30.2654 6.33376C30.2754 6.34906 30.2832 6.36532 30.2882 6.38291C30.292 6.39661 30.2961 6.40993 30.3012 6.42322C30.3035 6.42932 30.3053 6.4363 30.3087 6.44193" stroke="#121212" stroke-width="0.0671378" stroke-linecap="round"/>
<path d="M30.2622 6.38315C30.2586 6.3761 30.2561 6.36915 30.2539 6.36159C30.2527 6.35723 30.2515 6.37115 30.2477 6.37374C30.2408 6.37856 30.2382 6.36402 30.236 6.36023" stroke="#121212" stroke-width="0.0671378" stroke-linecap="round"/>
<path d="M6.73877 10.9921C6.79052 11.0892 6.8477 11.1827 6.91416 11.2707C6.97489 11.351 7.04003 11.4295 7.11417 11.4979C7.16415 11.5441 7.22047 11.5817 7.27815 11.6174C7.34742 11.6603 7.41766 11.7045 7.49095 11.7404C7.49746 11.7435 7.51534 11.7568 7.50987 11.7431" stroke="#121212" stroke-width="0.0671378" stroke-linecap="round"/>
<path d="M5.31222 5.38207C5.29688 5.39245 5.28277 5.40297 5.26993 5.41632C5.26787 5.41846 5.2529 5.43738 5.25402 5.43738C5.26942 5.43738 5.30793 5.3917 5.28601 5.38153C5.2677 5.37304 5.2423 5.38335 5.22637 5.39192C5.20764 5.402 5.19095 5.41528 5.17386 5.4278C5.16528 5.43409 5.15415 5.43983 5.14656 5.44741C5.14534 5.44864 5.15001 5.44835 5.15172 5.44805C5.16223 5.44616 5.17238 5.44248 5.18244 5.43901C5.19508 5.43465 5.20719 5.42929 5.2195 5.42437" stroke="#121212" stroke-width="0.0671378" stroke-linecap="round"/>
</g>
<defs>
<clipPath id="clip0_1766_1030">
<rect width="31.5548" height="19" fill="white"/>
</clipPath>
</defs>
</svg>
